<?xml version="1.0" encoding="UTF-8"?><svg id="Layer_1" xmlns="http://www.w3.org/2000/svg" xmlns:xlink="http://www.w3.org/1999/xlink" viewBox="0 0 366.8 222.4"><defs><style>.cls-1{fill:url(#Super_Soft_Black_Vignette);}.cls-2{fill:url(#Super_Soft_Black_Vignette-2);}</style><radialGradient id="Super_Soft_Black_Vignette" cx="289.1" cy="101.3" fx="289.1" fy="101.3" r="71.8" gradientUnits="userSpaceOnUse"><stop offset=".6" stop-color="#130c0e"/><stop offset=".8" stop-color="#130c0e"/><stop offset="1" stop-color="#130c0e"/></radialGradient><radialGradient id="Super_Soft_Black_Vignette-2" cx="105" cy="111.2" fx="105" fy="111.2" r="108.2" xlink:href="#Super_Soft_Black_Vignette"/></defs><path class="cls-1" d="M366.8,97.9c0-.9-.1-1.7-.2-2.5h0c-.1-1.5-.3-2.9-.5-4.3h0c-.1-1-.3-1.9-.4-2.8-.2-1.1-.4-2.1-.7-3.1-.1-.5-.3-1-.4-1.5,0,0,0-.2,0-.3-.3-.9-.5-1.8-.9-2.7-.1-.5-.3-1-.5-1.5-.2-.5-.4-1-.6-1.5-1.3-3.4-2.9-6.7-4.8-9.8-.2-.4-.5-.9-.8-1.3-.3-.4-.6-.9-.8-1.3-.6-.9-1.2-1.7-1.8-2.5-.3-.4-.6-.8-.9-1.2-.3-.4-.6-.8-1-1.2-.6-.8-1.3-1.6-2-2.4-.3-.4-.7-.8-1-1.1-.4-.4-.7-.7-1.1-1.1-.4-.4-.7-.7-1.1-1.1-.7-.7-1.5-1.4-2.3-2.1-.4-.3-.8-.7-1.2-1-.4-.3-.8-.7-1.2-1-.4-.3-.8-.7-1.2-1-1.1-.8-2.1-1.6-3.2-2.3-.2-.1-.4-.3-.6-.5-.4-.2-.8-.5-1.2-.7-.4-.3-.9-.6-1.4-.8-.9-.5-1.8-1-2.7-1.5-1.4-.7-2.8-1.4-4.2-2.1-.5-.2-1-.4-1.4-.6-1.4-.6-2.9-1.2-4.4-1.6-.5-.2-1-.3-1.5-.5-.5-.1-1-.3-1.4-.4,0,0-.1,0-.2,0-.5-.1-1-.3-1.5-.4-.5-.1-1-.3-1.5-.4-1.9-.4-3.8-.8-5.8-1-.7,0-1.3-.2-2-.2,0,0,0,0-.1,0-.6,0-1.3-.1-1.9-.2-.9,0-1.9-.1-2.9-.1-.6,0-1.2,0-1.7,0h0c-.8,0-1.7,0-2.5,0-.3,0-.5,0-.8,0h-.2c-.7,0-1.4,0-2.1,.1-.9,0-1.8,.2-2.8,.3h-.3c-.5,.1-1,.2-1.5,.3,0,0-.1,0-.2,0-.6,0-1.1,.2-1.7,.3h-.6c-.1,.1-.2,.1-.3,.2-.7,.1-1.3,.3-2,.4-.3,0-.5,.1-.8,.2,0,0,0,0-.1,0-.4,0-.8,.2-1.2,.3-.6,.1-1.1,.3-1.6,.5-.6,.2-1.1,.3-1.6,.5-.5,.2-1.1,.4-1.6,.5-.9,.3-1.8,.7-2.8,1.1,0,0,0,0-.1,0s0,0-.1,0c-.5,.2-1,.4-1.4,.6-.1,0-.3,.1-.4,.2-.6,.2-1.1,.5-1.6,.8-.4,.2-.8,.4-1.2,.6-.5,.2-1,.5-1.5,.8-.5,.3-1,.5-1.5,.8-.5,.3-1,.6-1.5,.9-.5,.3-.9,.6-1.4,.9-.4,.3-.9,.6-1.3,.9-1.4,1-2.7,1.9-4,3-.9,.7-1.7,1.4-2.5,2.1-.4,.4-.8,.7-1.2,1.1-.4,.4-.8,.7-1.2,1.1-.4,.4-.8,.8-1.2,1.2-.4,.4-.8,.8-1.1,1.2-1.2,1.3-2.3,2.6-3.4,4-1.1,1.4-2.1,2.8-3.1,4.3-1,1.5-1.9,3-2.7,4.5-.8,1.5-1.6,3.1-2.3,4.6,0,0,0,0,0,0l7.5,13.1h0c.4-1.6,1-3.3,1.5-4.9,.1-.4,.3-.7,.4-1,.2-.5,.4-.9,.6-1.4,.1-.4,.3-.8,.5-1.1,0-.1,.1-.3,.2-.4,.2-.6,.5-1.1,.7-1.6h0c.3-.7,.7-1.3,1-1.9,.2-.4,.5-.9,.8-1.3,.2-.4,.5-.8,.7-1.2,.4-.6,.8-1.2,1.2-1.8,.3-.5,.7-1,1-1.4,0-.1,.2-.2,.3-.3,.3-.4,.5-.7,.8-1.1,.2-.3,.4-.6,.6-.8,.5-.7,1.1-1.3,1.7-2,.4-.5,.9-1.1,1.4-1.5l.2-.2c.7-.7,1.5-1.4,2.2-2.1,0,0,.1-.1,.2-.2,.3-.3,.6-.6,1-.8,.8-.7,1.5-1.3,2.3-1.9,.2-.1,.4-.3,.6-.5,1.1-.8,2.2-1.6,3.4-2.3,.5-.3,1-.7,1.6-1,.5-.3,1-.6,1.6-.9,0,0,0,0,.1,0,.5-.3,1-.5,1.6-.8,.7-.4,1.4-.7,2.1-1,0,0,.1,0,.2,0,.7-.3,1.4-.6,2.1-.8,.5-.2,1-.4,1.6-.6,.7-.3,1.5-.5,2.3-.7,.2,0,.4-.1,.6-.2,.2,0,.5-.1,.7-.2,.1,0,.3,0,.4,0,.4-.1,.7-.2,1.1-.3,0,0,.1,0,.2,0,.5-.1,1-.2,1.5-.4,0,0,0,0,.1,0,.4,0,.7-.1,1.1-.2h.4c.5-.1,1.1-.2,1.6-.3,0,0,.1,0,.2,0,.4,0,.7,0,1.1-.1,.2,0,.4,0,.6,0,.1,0,.2,0,.3,0,.5,0,1-.1,1.5-.1,.1,0,.3,0,.5,0,.4,0,.9,0,1.3,0,0,0,.2,0,.3,0,.6,0,1.3,0,1.9,0h.1c5.6,0,10.9,.8,15.9,2.4,21.9,6.8,37.8,27.2,37.8,51.3s-15.9,44.5-37.8,51.3c-5,1.6-10.4,2.4-15.9,2.4h0c-.8,0-1.7,0-2.5,0-.2,0-.3,0-.5,0-.6,0-1.2,0-1.8-.1-.2,0-.3,0-.5,0h-.1c0,0-.1,0-.1,0-.7,0-1.5-.2-2.3-.3-.2,0-.4,0-.6,0-.3,0-.7-.1-1-.2-.3,0-.6-.1-1-.2-.3,0-.5,0-.8-.1-.2,0-.5-.1-.8-.2-.5-.1-1.1-.3-1.6-.4,0,0,0,0,0,0-2-.5-4-1.2-5.8-1.9-1.1-.4-2.2-1-3.3-1.5-.4-.2-.7-.3-1.1-.5,0,0-.1,0-.2-.1-.8-.4-1.5-.8-2.3-1.3-.6-.3-1.2-.7-1.8-1-.6-.4-1.2-.8-1.8-1.2s-.8-.5-1.2-.8c-.3-.2-.7-.5-1-.7-1-.8-2.1-1.6-3.1-2.5,0,0,0,0,0,0-.5-.4-1-.9-1.5-1.4-.2-.2-.5-.4-.7-.7,0,0-.1-.1-.2-.2,0,0-.1-.1-.2-.2h0c-1-1-1.9-2-2.8-3.1-.1-.2-.3-.3-.4-.5-.2-.3-.4-.5-.6-.8-.7-.8-1.3-1.7-1.9-2.6-.2-.3-.4-.5-.5-.8-.3-.4-.5-.8-.8-1.2,0,0,0,0,0,0,0-.1-.2-.3-.3-.4-.3-.5-.6-1-.9-1.5-.2-.3-.4-.6-.6-.9-.5-.8-.9-1.6-1.3-2.5,0,0,0,0,0-.1-1.2-2.3-2.3-4.6-3.6-6.8-.5-.9-1-1.8-1.5-2.7-.7-1.3-1.4-2.5-2.1-3.8l-9.5-16.6h0s-1.5-2.7-1.5-2.7l-10.9-18.2,12.1-24.8h-12.9l-9.5,20.2h0s-2.7,5.4-2.7,5.4h0c.2,.4,.5,.9,.7,1.3,.1,.2,.3,.5,.4,.8,0,0,0,.1,.1,.2,0,0,0,0,0,.1l.9,1.6,.5,.8,5.6,10.1,5.4,9.6,4.6,8.2h0c0,0,4.4,7.9,4.4,7.9,0,0,7.8,12.9,10.6,17.3,0,0,0,0,0,.1,0,0,0,0,0,.1,0,.1,.2,.3,.3,.4,0,0,0,0,0,0,.1,.2,.2,.4,.3,.5,0,0,0,0,0,.1,0,0,0,0,0,0,.7,1.2,1.5,2.4,2.2,3.5,.8,1.1,1.6,2.3,2.5,3.4,0,0,0,0,0,.1,.4,.5,.8,1,1.2,1.5,0,0,0,0,0,0,.4,.5,.9,1,1.3,1.5,.9,1,1.9,2,2.9,3,.7,.7,1.5,1.5,2.3,2.1,.8,.7,1.6,1.4,2.4,2,1.6,1.3,3.3,2.6,5,3.7,.5,.4,1.1,.7,1.6,1.1,.3,.2,.6,.4,.9,.5,.4,.3,.9,.5,1.3,.8,.4,.2,.8,.5,1.2,.7,.4,.2,.8,.4,1.3,.7,1.1,.6,2.2,1.1,3.3,1.6l1.7,.7c.6,.2,1.1,.4,1.7,.7,.6,.2,1.2,.4,1.8,.7,1.2,.4,2.4,.8,3.7,1.2,.4,.1,.8,.2,1.2,.3,1,.3,2,.5,3,.7,.5,.1,1,.2,1.5,.3,.5,0,1,.2,1.5,.3,.6,.1,1.2,.2,1.8,.3h0c0,0,.1,0,.2,0,.6,0,1.3,.2,1.9,.2h0c.7,0,1.3,.1,2,.2,.7,0,1.3,0,2,.1,.9,0,1.8,0,2.6,0s1.4,0,2.1,0c.8,0,1.6,0,2.4-.1,.6,0,1.2,0,1.7-.1,1.4-.1,2.7-.3,4-.5,.4,0,.9-.1,1.3-.2,0,0,0,0,0,0,.4,0,.9-.1,1.4-.3h0c0,0,.2,0,.3,0,.2,0,.5-.1,.7-.2,.2,0,.4,0,.7-.1,0,0,.2,0,.3,0,.6-.1,1.2-.3,1.8-.5,.4,0,.7-.2,1.1-.3,.7-.2,1.3-.4,2-.6,.5-.2,1-.3,1.5-.5,.3,0,.5-.2,.8-.3,.4-.1,.9-.3,1.3-.5,.7-.3,1.4-.5,2.1-.8,.6-.2,1.2-.5,1.7-.8,.6-.3,1.2-.6,1.8-.9,0,0,0,0,0,0,0,0,0,0,0,0,.6-.3,1.1-.6,1.7-.9,0,0,.2,0,.3-.1,.4-.2,.8-.4,1.2-.7,.2,0,.3-.2,.5-.3,.4-.2,.7-.4,1.1-.6,.2-.1,.4-.2,.5-.3,.5-.3,.9-.6,1.4-.9,1.1-.7,2.2-1.5,3.2-2.3,.5-.4,1-.8,1.6-1.2,1-.8,2-1.6,3-2.5,.5-.4,1-.9,1.4-1.3,0,0,0,0,0,0,.4-.4,.9-.9,1.3-1.3,1.8-1.8,3.4-3.7,5-5.6,0,0,.1-.1,.1-.2,.4-.5,.8-1,1.2-1.5,.4-.5,.7-1,1.1-1.5,0,0,0,0,0,0,6.8-9.8,10.9-21.6,11.4-34.3,0-.2,0-.4,0-.7v-3.7c0-.6,0-1.1,0-1.7,0,0,0,0,0,0Z"/><path class="cls-2" d="M171.3,155.1l-31.7-54.9-2.1-3.7-1.5-2.7-5.5-9.2V0h-11.4V65.9c-3.6-5.3-7.9-10-12.9-14l-1.6-1.3c-.5-.4-1-.8-1.6-1.2,0,0,0,0,0,0-.6-.4-1.1-.8-1.7-1.2-1.1-.8-2.3-1.5-3.4-2.1,0,0,0,0,0,0-.6-.3-1.2-.7-1.8-1-.6-.3-1.2-.6-1.8-1-1.2-.6-2.5-1.2-3.8-1.7-2.3-1-4.7-1.8-7.1-2.5-2.3-.7-4.7-1.2-7.2-1.6-.7-.1-1.3-.2-2-.3-1.4-.2-2.8-.3-4.3-.4-.8,0-1.6,0-2.4-.1-.7,0-1.4,0-2.1,0h0c-.7,0-1.5,0-2.3,0-.4,0-.8,0-1.2,0-.5,0-1,0-1.5,.1-1.4,0-2.7,.2-4,.4-.6,0-1.2,.2-1.8,.3-.1,0-.3,0-.4,0-.8,.1-1.6,.3-2.4,.5-1.1,.2-2.2,.5-3.3,.8-.6,.1-1.1,.3-1.7,.5-.2,0-.4,.1-.6,.2-.6,.2-1.2,.4-1.8,.6-1.2,.4-2.3,.8-3.4,1.3-.6,.3-1.2,.5-1.9,.8-2.2,1-4.3,2.1-6.3,3.2-.5,.3-1,.5-1.4,.8-1.7,1-3.3,2.1-4.8,3.3-.5,.4-1,.8-1.5,1.2-.5,.4-1,.8-1.5,1.2-.5,.4-1,.8-1.5,1.3-.5,.4-1,.9-1.4,1.3-.5,.4-.9,.9-1.4,1.4-.4,.5-.9,.9-1.3,1.4-.4,.4-.8,.8-1.1,1.2,0,0-.2,.2-.3,.3-.4,.4-.8,.9-1.2,1.4-.8,1-1.6,2-2.4,3.1-.4,.5-.7,1-1.1,1.5,0,0,0,0,0,0-4.3,6.2-7.5,13.2-9.5,20.8C.8,91.1,.1,96,0,101.1c0,.5,0,1,0,1.5,0,1.1,0,2.2,0,3.4,0,.4,0,.8,0,1.2,0,.5,0,1,.1,1.5,0,.3,0,.7,0,1,0,.4,0,.9,.1,1.3,0,.6,.1,1.2,.2,1.7,.2,1,.4,2.1,.6,3.1,.2,1.1,.5,2.1,.7,3.2,.4,1.6,.9,3.1,1.4,4.6,.1,.3,.2,.7,.4,1,.1,.3,.2,.7,.4,1,1.4,3.8,3.2,7.5,5.3,10.9,.2,.4,.4,.7,.7,1.1,.4,.5,.7,1.1,1.1,1.6,.6,.8,1.2,1.7,1.8,2.5h0c.6,.8,1.2,1.6,1.9,2.4,1,1.2,2.1,2.4,3.2,3.6,.4,.4,.7,.7,1.1,1.1,1.1,1.1,2.3,2.2,3.4,3.2,.4,.3,.8,.7,1.2,1,.8,.7,1.6,1.3,2.5,1.9,.4,.3,.8,.6,1.3,.9s.9,.6,1.3,.9c.9,.6,1.8,1.2,2.6,1.7,1.3,.8,2.7,1.6,4.1,2.3,.5,.2,.9,.5,1.4,.7,.5,.2,1,.4,1.4,.7,.5,.2,1,.4,1.5,.6,.9,.4,1.8,.7,2.7,1.1,.8,.3,1.6,.6,2.4,.8,.4,.1,.9,.3,1.4,.4,.4,.1,.7,.2,1.1,.3,.4,.1,.8,.2,1.2,.3,.6,.2,1.3,.3,1.9,.5,.4,0,.7,.2,1.1,.2,3,.7,6,1.1,9.1,1.3,.9,0,1.8,0,2.8,.1,.6,0,1.1,0,1.7,0s1.3,0,1.9,0c.5,0,1,0,1.4,0,.5,0,1,0,1.5,0,.8,0,1.6-.1,2.4-.2,1.4-.2,2.8-.4,4.2-.6,.3,0,.6-.1,.9-.2,.5,0,1-.2,1.5-.3,.3,0,.5-.1,.8-.2,1.4-.3,2.9-.7,4.3-1.1,.7-.2,1.3-.4,1.9-.6,.1,0,.2,0,.3-.1,2.2-.8,4.4-1.6,6.5-2.6,1.4-.7,2.8-1.4,4.1-2.1,.7-.4,1.3-.8,2-1.2,.7-.4,1.3-.8,2-1.2,.6-.4,1.3-.9,1.9-1.3,0,0,0,0,0,0,.6-.4,1.2-.9,1.8-1.4s1.2-.9,1.8-1.4c1.8-1.5,3.5-3,5.1-4.7,5.4-5.5,9.8-11.9,13-19l-7.5-13.3c-.2,.7-.4,1.4-.6,2.1-.2,.6-.4,1.3-.6,1.9,0,.1,0,.3-.1,.4-.2,.7-.4,1.3-.7,1.9-.2,.7-.5,1.4-.9,2.1-.3,.7-.6,1.3-.9,2-.3,.7-.7,1.3-1,2-.7,1.3-1.4,2.5-2.3,3.7-1.2,1.8-2.5,3.6-3.9,5.2,0,0,0,0,0,0-.9,1.1-1.9,2.1-2.9,3.1-.5,.5-1,1-1.5,1.5,0,0,0,0,0,0-.5,.4-1,.9-1.4,1.3,0,0-.2,.1-.3,.2-.4,.4-.9,.7-1.3,1.1-.2,.2-.4,.3-.5,.4-.5,.4-1,.7-1.4,1.1,0,0,0,0,0,0-.6,.4-1.2,.9-1.8,1.2-1,.7-2,1.3-3,1.8-.9,.5-1.8,1-2.7,1.5-.4,.2-.9,.5-1.4,.7-.4,.2-.9,.4-1.3,.6-.2,0-.4,.2-.6,.2-.5,.2-1.1,.5-1.7,.7-.2,0-.5,.2-.7,.3-.5,.2-1,.4-1.5,.5-1.1,.4-2.3,.7-3.4,1-.8,.2-1.6,.4-2.5,.6h0c-.7,.1-1.3,.3-2,.4-.5,0-1,.2-1.4,.2-.3,0-.7,0-1,.1-.5,0-.9,.1-1.4,.1-.4,0-.8,0-1.2,0-.4,0-.8,0-1.2,0-.8,0-1.7,0-2.5,0-15.1,0-28.7-6.2-38.5-16.2-1-1-2-2.1-3-3.3-1.9-2.3-3.6-4.7-5.1-7.3-.7-1.3-1.4-2.6-2.1-4-.3-.7-.6-1.4-.9-2-.9-2.1-1.6-4.2-2.2-6.4-.2-.7-.4-1.5-.6-2.2-1-4-1.5-8.1-1.5-12.4s0-3.7,.3-5.5h0c1.5-15.3,9.5-28.6,21-37.4h0c1.3-1,2.6-1.9,4-2.7,.7-.4,1.4-.8,2.1-1.2,1.4-.8,2.9-1.5,4.3-2.2,6.7-3,14.1-4.7,22-4.7h0c.8,0,1.6,0,2.3,0,.2,0,.3,0,.5,0,.8,0,1.6,0,2.4,.2,.1,0,.3,0,.4,0,.7,0,1.4,.2,2.1,.3,.3,0,.5,0,.8,.1,.7,.1,1.3,.2,1.9,.3,.4,0,.8,.2,1.2,.3,1.2,.3,2.5,.6,3.7,1,.5,.1,1,.3,1.4,.4,1.2,.4,2.3,.8,3.4,1.3,.5,.2,1,.4,1.4,.6,.9,.4,1.8,.8,2.7,1.3,.1,0,.3,.2,.5,.2,.4,.2,.9,.4,1.3,.7,1,.5,1.9,1.1,2.9,1.7,.5,.3,.9,.6,1.4,.9,.8,.5,1.5,1.1,2.2,1.6h0c.1,.1,.3,.2,.5,.3,.4,.3,.9,.7,1.3,1,.4,.4,.8,.7,1.3,1.1,.4,.3,.8,.7,1.2,1.1,.4,.4,.8,.7,1.2,1.2,.8,.8,1.5,1.6,2.3,2.4,.7,.8,1.5,1.7,2.1,2.6,1,1.3,2,2.7,2.9,4.1v.2c1.1,1.6,2,3.2,2.9,4.9l.2,.4,3.5,6.2,13,23.2h0s0,0,0,0l.9,1.4,34.1,57.2-28.4,55.1h13.3l21.6-44.1,6.1-12.3,1.1-2.3,31.2-61.3c-2.7-4.6-4.8-8.4-6.6-11.4l-32.1,64.2Z"/></svg>