<?xml version="1.0" encoding="UTF-8"?><svg id="Layer_1" xmlns="http://www.w3.org/2000/svg" viewBox="0 0 1196.8 725.6"><path d="M1196.6,319.5c-.1-2.8-.5-5.5-.7-8.2v-.3c-.4-4.6-1-9.1-1.7-13.6h0c-.5-3.1-.9-6.1-1.5-9.1-.7-3.5-1.5-6.9-2.3-10.2-.4-1.6-.9-3.3-1.3-5,0-.3-.1-.6-.2-.9-.9-3-1.8-6-2.8-8.9-.5-1.6-1.1-3.3-1.6-4.9-.6-1.6-1.2-3.2-1.8-4.8-4.3-11.1-9.5-21.8-15.7-32-.7-1.5-1.6-2.9-2.5-4.3-.9-1.5-1.8-2.9-2.7-4.3-1.8-2.8-3.8-5.6-5.8-8.3-1-1.4-2-2.7-3-4-1-1.3-2-2.6-3.1-4-2.1-2.6-4.3-5.2-6.5-7.7-1.1-1.2-2.3-2.5-3.3-3.7-1.2-1.2-2.3-2.4-3.5-3.6-1.2-1.2-2.3-2.4-3.5-3.5-2.4-2.4-4.9-4.6-7.4-6.9-1.3-1.1-2.5-2.2-3.8-3.3-1.3-1.1-2.6-2.2-3.9-3.2-1.3-1.1-2.7-2.1-4.1-3.1-3.5-2.7-6.9-5.2-10.5-7.6-.7-.5-1.3-1-2.1-1.5-1.3-.8-2.6-1.6-3.8-2.4-1.5-.9-2.9-1.8-4.4-2.7-2.9-1.7-5.8-3.3-8.8-5-4.4-2.4-9-4.7-13.7-6.7-1.6-.7-3.2-1.3-4.7-2-4.7-2-9.5-3.8-14.4-5.4-1.6-.6-3.2-1.1-4.9-1.6-1.5-.5-3.1-.9-4.6-1.3-.2-.1-.4-.2-.6-.2-1.6-.5-3.2-.9-4.7-1.3-1.6-.4-3.3-.9-5-1.2-6.2-1.4-12.5-2.6-18.9-3.4-2.2-.3-4.4-.5-6.6-.7-.1,0-.2,0-.4,0-2.1-.2-4.2-.4-6.3-.5-3-.2-6.1-.4-9.3-.5-1.9,0-3.8,0-5.7,0h-.1c-2.7,0-5.4,0-8,.2-.9,0-1.8,0-2.6,.1h-.8c-2.3,.1-4.6,.3-6.9,.5-3,.2-6,.6-9.1,1l-1.1,.2c-1.7,.2-3.3,.4-5,.7-.2,0-.4,0-.5,0-1.9,.3-3.7,.6-5.5,1l-1.8,.4c-.4,0-.7,.1-1,.2-2.2,.4-4.4,.9-6.5,1.4-.9,.2-1.8,.4-2.6,.6-.1,0-.3,0-.4,.1-1.3,.3-2.6,.7-3.9,1-1.8,.5-3.6,1-5.4,1.5-1.8,.5-3.5,1.1-5.3,1.7-1.7,.5-3.5,1.2-5.2,1.8-3,1.1-6,2.3-9,3.5-.1,0-.2,0-.4,.1s-.3,.1-.4,.2c-1.6,.7-3.2,1.3-4.7,2-.5,.2-.9,.4-1.3,.6-1.8,.8-3.6,1.6-5.4,2.6-1.3,.6-2.6,1.3-4,1.9-1.6,.8-3.2,1.6-4.8,2.6-1.6,.9-3.2,1.8-4.7,2.7-1.7,.9-3.3,1.9-4.9,2.9-1.5,.9-3,1.8-4.4,2.8-1.5,1-2.9,1.9-4.4,2.9-4.4,3.1-8.8,6.3-13,9.7-2.8,2.3-5.5,4.6-8.2,7-1.3,1.2-2.7,2.4-4,3.7-1.3,1.2-2.6,2.4-3.9,3.7-1.3,1.3-2.6,2.6-3.8,3.8-1.3,1.3-2.6,2.6-3.7,4-3.8,4.2-7.5,8.5-11,13-3.5,4.5-6.9,9.1-10,13.9-3.2,4.8-6.1,9.7-8.9,14.7-2.7,4.9-5.2,10-7.5,15.1,0,0-.1,.2-.1,.3l24.6,42.9h0c1.4-5.4,3.1-10.8,5-16.1,.4-1.2,.9-2.2,1.3-3.4,.6-1.5,1.2-3,1.9-4.6,.5-1.2,1-2.5,1.6-3.7,.2-.5,.4-1,.7-1.4,.7-1.8,1.6-3.6,2.4-5.4h0c1.1-2.1,2.1-4.1,3.3-6.1,.8-1.5,1.6-2.9,2.5-4.4,.7-1.3,1.6-2.6,2.4-3.9,1.3-2,2.5-4,3.8-6,1-1.5,2.1-3.1,3.3-4.6,.2-.4,.5-.7,.9-1.1,.9-1.2,1.8-2.4,2.7-3.5,.7-.9,1.4-1.8,2.1-2.7,1.8-2.2,3.7-4.3,5.7-6.4,1.5-1.7,3-3.5,4.6-5l.8-.8c2.4-2.4,4.7-4.7,7.2-6.9,.2-.2,.4-.4,.5-.5,1-1,2.1-1.8,3.1-2.7,2.5-2.1,5-4.2,7.6-6.2,.7-.5,1.3-1,1.9-1.5,3.6-2.7,7.3-5.2,11.1-7.6,1.6-1,3.3-2.1,5.1-3.1,1.7-1,3.4-2,5.2-2.9,.1,0,.2-.1,.4-.2,1.6-.9,3.3-1.8,5.1-2.6,2.3-1.2,4.6-2.3,7-3.3,.2,0,.5-.2,.8-.3,2.2-1,4.4-1.9,6.7-2.7,1.7-.7,3.4-1.3,5.2-1.9,2.4-.9,4.9-1.7,7.4-2.4,.6-.2,1.3-.4,1.9-.6,.8-.2,1.6-.4,2.4-.7,.4-.1,.9-.2,1.3-.3,1.2-.4,2.4-.6,3.6-.9,.2,0,.4-.1,.5-.1,1.6-.4,3.3-.8,5-1.2,.1,0,.2,0,.4,0,1.2-.2,2.4-.5,3.6-.7l1.3-.2c1.8-.3,3.6-.6,5.4-.9,.2,0,.4,0,.5,0,1.2-.2,2.3-.3,3.5-.4,.6-.1,1.2-.2,1.8-.2,.4,0,.7-.1,1.1-.1,1.6-.2,3.2-.4,4.7-.4,.5,0,1-.1,1.5-.1,1.5-.1,2.9-.2,4.3-.2,.3,0,.6,0,.9,0,2.1,0,4.2-.1,6.3-.1h.5c18.1,0,35.6,2.7,52,7.8,71.3,22.1,123.2,88.7,123.2,167.4s-51.9,145.2-123.2,167.3c-16.4,5.2-33.9,7.9-52,7.9h-.2c-2.7,0-5.5,0-8.2-.2-.5,0-1,0-1.6,0-1.9-.1-3.9-.2-5.8-.4-.5,0-1.1-.1-1.6-.2h-.5c-.2,0-.4,0-.5,0-2.4-.2-4.9-.5-7.4-.9-.7,0-1.3-.2-1.9-.3-1.1-.2-2.2-.4-3.2-.5-1-.2-2.1-.4-3.1-.6-.9-.1-1.7-.3-2.6-.5-.8-.1-1.6-.4-2.5-.5-1.8-.4-3.5-.9-5.2-1.2,0,0-.1,0-.2,0-6.5-1.7-12.9-3.8-19-6.2-3.7-1.4-7.3-3.1-10.9-4.7-1.2-.5-2.4-1-3.5-1.6-.2-.1-.4-.2-.7-.4-2.6-1.3-5-2.7-7.5-4.1-2-1.1-4-2.3-6-3.4-2.1-1.3-4-2.7-6-4s-2.6-1.7-3.8-2.6c-1.1-.8-2.1-1.6-3.2-2.4-3.4-2.6-6.8-5.2-10-8,0,0,0,0-.1,0-1.7-1.5-3.3-3-4.9-4.6-.8-.7-1.6-1.5-2.3-2.2-.2-.2-.5-.4-.7-.6-.2-.2-.4-.5-.7-.7h0c-3.2-3.3-6.3-6.6-9.2-10.1-.4-.5-.9-1-1.3-1.6-.7-.9-1.3-1.7-2-2.5-2.1-2.7-4.3-5.5-6.3-8.3-.6-.9-1.2-1.6-1.8-2.5-.9-1.3-1.7-2.6-2.6-3.8,0,0,0,0,0-.1-.3-.4-.5-.9-.9-1.3-1-1.6-1.9-3.2-2.8-4.9-.7-1-1.3-2-1.8-3-1.5-2.6-3-5.4-4.4-8-.1-.1-.2-.3-.2-.5-3.9-7.4-7.7-15-11.8-22.1-1.6-2.9-3.3-5.8-5-8.8-2.3-4.1-4.7-8.2-7-12.3l-30.8-54h0c0,0-5-8.8-5-8.8l-35.5-59.4,39.5-80.8h-42l-31,65.9h0c0,0-8.8,17.6-8.8,17.6v.2c.6,1.2,1.4,2.6,2.2,4,.5,.8,1,1.6,1.5,2.6,.1,.2,.2,.5,.4,.7,0,.1,.1,.3,.2,.4l2.9,5.1,1.6,2.7,18.4,33,17.6,31.4,15,26.8v.2c.1,0,14.5,25.5,14.5,25.5,0,0,25.6,42.1,34.5,56.5,0,.1,.2,.2,.2,.4,.1,.1,.2,.3,.3,.4,.3,.5,.5,1,.9,1.5,0,0,.1,.2,.1,.2,.5,.7,.8,1.3,1,1.6,0,.2,.1,.3,.3,.5,0,.1,.1,.2,.1,.2,2.3,3.9,4.7,7.7,7.3,11.5,2.6,3.7,5.2,7.4,8,10.9,0,.2,.2,.3,.3,.4,1.3,1.6,2.6,3.2,3.8,4.8,.1,0,.2,.2,.2,.2,1.4,1.6,2.9,3.3,4.3,4.9,3,3.3,6.1,6.6,9.3,9.8,2.4,2.4,4.9,4.7,7.4,7,2.6,2.2,5.1,4.5,7.7,6.6,5.3,4.3,10.7,8.4,16.4,12.1,1.8,1.2,3.5,2.4,5.4,3.5,.9,.5,1.9,1.2,2.8,1.7,1.4,.9,2.9,1.7,4.3,2.5,1.3,.8,2.7,1.5,4,2.3,1.4,.7,2.7,1.4,4.1,2.1,3.5,1.8,7.1,3.6,10.8,5.2l5.5,2.4c1.9,.7,3.7,1.5,5.6,2.2,1.9,.7,3.8,1.5,5.7,2.1,4,1.4,7.9,2.6,12,3.8,1.3,.4,2.6,.7,4,1.1,3.2,.9,6.4,1.6,9.7,2.3,1.6,.4,3.2,.7,4.9,1,1.7,.3,3.3,.6,5,.9,1.9,.4,4,.7,5.9,.9h.1c.2,0,.5,0,.7,.1,2.1,.3,4.1,.5,6.2,.7h.2c2.1,.2,4.4,.4,6.6,.5,2.1,.2,4.3,.3,6.4,.4,2.9,.1,5.7,.2,8.6,.2s4.6,0,6.8-.1c2.6,0,5.2-.2,7.7-.4,1.9-.1,3.8-.3,5.7-.5,4.4-.4,8.9-1,13.2-1.6,1.4-.2,2.9-.4,4.3-.7,.1,0,.2,0,.3,0,1.5-.2,3-.5,4.4-.9h.1c.3,0,.7-.1,1-.2,.8-.2,1.6-.4,2.4-.5,.7-.2,1.5-.3,2.1-.5,.3,0,.7-.1,1-.2,2-.4,4-1,6-1.5,1.2-.3,2.4-.6,3.6-1,2.1-.6,4.3-1.2,6.4-1.9,1.6-.5,3.2-1,4.7-1.6,.9-.2,1.8-.6,2.6-1,1.5-.5,2.9-1,4.3-1.6,2.3-.9,4.6-1.8,6.9-2.7,1.9-.8,3.8-1.6,5.6-2.5,1.9-.9,3.9-1.8,5.8-2.8,0,0,0,0,0,0,0,0,.1,0,.2,0,1.8-.9,3.6-1.8,5.4-2.8,.3-.1,.6-.3,.9-.5,1.3-.7,2.6-1.5,3.8-2.2,.5-.3,1-.6,1.6-.9,1.2-.7,2.3-1.3,3.5-2,.6-.4,1.2-.7,1.8-1.1,1.5-.9,3-1.9,4.5-2.9,3.6-2.4,7.1-4.8,10.6-7.5,1.7-1.2,3.4-2.6,5.1-3.9,3.3-2.6,6.5-5.4,9.7-8.2,1.5-1.4,3.1-2.8,4.6-4.3,0,0,.2-.1,.2-.2,1.5-1.5,2.9-2.9,4.3-4.3,5.8-5.8,11.2-12,16.3-18.4,.2-.2,.4-.4,.5-.6,1.3-1.6,2.5-3.3,3.8-5,1.2-1.6,2.4-3.3,3.5-5,0,0,0-.1,.1-.2,22.1-32,35.6-70.4,37.3-111.9,0-.7,.1-1.4,.1-2.1v-11.9c0-1.8-.1-3.6-.2-5.4,0,0,0-.2,0-.2Z"/><path d="M559,505.9l-103.5-179-6.9-12.2-5-8.8-17.8-29.9V0h-37.2V214.9c-11.8-17.2-25.9-32.8-42-45.8l-5.3-4.1c-1.7-1.3-3.4-2.5-5.1-3.8-.1,0-.2-.1-.3-.2-1.8-1.3-3.7-2.6-5.6-3.8-3.7-2.5-7.4-4.7-11.2-6.9,0,0-.1,0-.2-.1-1.9-1.1-3.9-2.2-5.9-3.3-2-1-4-2.1-6-3.1-4.1-1.9-8.1-3.8-12.3-5.6-7.5-3.2-15.3-5.9-23.3-8.2-7.7-2.2-15.4-4-23.5-5.2-2.1-.4-4.3-.7-6.4-1-4.6-.6-9.2-1.1-13.9-1.4-2.6-.2-5.2-.3-7.8-.4-2.2,0-4.4-.1-6.7-.1h0c-2.4,0-4.9,0-7.4,.1-1.3,0-2.7,.1-4,.2-1.7,0-3.4,.2-5,.4-4.4,.3-8.9,.8-13.2,1.4-2,.2-4,.5-6,.9-.5,0-1,.1-1.4,.2-2.7,.5-5.4,1-8,1.5-3.7,.8-7.2,1.7-10.8,2.7-1.8,.5-3.7,1-5.5,1.6-.7,.2-1.3,.4-2,.6-1.9,.6-3.8,1.2-5.7,1.9-3.8,1.3-7.5,2.7-11.3,4.2-2.1,.9-4.1,1.7-6.1,2.6-7.1,3.2-13.9,6.7-20.5,10.6-1.6,.9-3.1,1.8-4.6,2.7-5.4,3.3-10.7,6.9-15.8,10.7-1.6,1.3-3.3,2.6-5,3.8-1.6,1.3-3.3,2.7-4.9,4-1.6,1.4-3.2,2.7-4.7,4.2-1.6,1.4-3.1,2.8-4.6,4.3-1.6,1.5-3,2.9-4.6,4.4-1.5,1.5-2.9,3-4.4,4.6-1.2,1.3-2.5,2.7-3.7,4.1-.3,.3-.5,.6-.9,1-1.3,1.5-2.6,2.9-3.8,4.4-2.7,3.3-5.4,6.6-7.9,10.1-1.2,1.6-2.4,3.3-3.5,4.9,0,0-.1,0-.1,.1-14,20.3-24.6,43.2-30.8,67.8-4,15.3-6.2,31.4-6.6,47.9,0,1.6,0,3.3,0,5,0,3.6,.1,7.3,.3,10.9,0,1.3,.1,2.5,.2,3.8,.1,1.6,.2,3.3,.4,4.9,0,1.1,.2,2.2,.3,3.2,.1,1.4,.3,2.9,.5,4.3,.2,1.9,.5,3.8,.8,5.6,.5,3.4,1.2,6.8,1.8,10.2,.7,3.5,1.5,6.9,2.4,10.3,1.3,5.1,2.8,10.2,4.5,15.1,.4,1.1,.7,2.2,1.2,3.3,.4,1,.7,2.1,1.2,3.2,4.7,12.5,10.5,24.5,17.3,35.6,.7,1.2,1.5,2.4,2.2,3.6,1.2,1.8,2.3,3.6,3.5,5.3,1.9,2.7,3.8,5.5,5.8,8.1h0c2.1,2.7,4.1,5.4,6.1,7.9,3.3,4,6.8,7.8,10.3,11.6,1.2,1.2,2.4,2.4,3.6,3.7,3.6,3.6,7.4,7.1,11.3,10.5,1.3,1.1,2.6,2.2,3.9,3.3,2.6,2.1,5.3,4.3,8,6.3,1.3,1,2.7,2,4.1,3s2.8,1.9,4.2,2.9c2.8,1.9,5.7,3.8,8.6,5.5,4.4,2.7,8.9,5.2,13.5,7.5,1.5,.8,3,1.5,4.6,2.3,1.5,.7,3.1,1.5,4.7,2.2,1.6,.7,3.2,1.4,4.7,2.1,2.9,1.2,5.8,2.4,8.8,3.5,2.6,1,5.2,1.8,7.8,2.7,1.5,.5,2.9,1,4.4,1.4,1.2,.4,2.4,.7,3.5,1,1.3,.4,2.6,.7,4,1.1,2.1,.5,4.1,1.1,6.2,1.5,1.2,.3,2.4,.5,3.6,.8,9.7,2.1,19.7,3.5,29.8,4.2,3,.2,6,.3,9.1,.4,1.9,0,3.7,0,5.6,0s4.2,0,6.3-.1c1.6,0,3.2,0,4.7-.2,1.7,0,3.3-.2,5-.3,2.6-.2,5.3-.4,7.9-.7,4.6-.5,9.2-1.2,13.7-2,1-.2,1.9-.4,2.9-.5,1.7-.3,3.3-.7,5-1,.9-.2,1.6-.4,2.5-.5,4.7-1.1,9.4-2.3,13.9-3.7,2.1-.7,4.2-1.3,6.3-2,.4-.2,.7-.2,1-.4,7.2-2.5,14.4-5.4,21.2-8.6,4.6-2.1,9.1-4.5,13.4-6.9,2.2-1.2,4.4-2.5,6.5-3.8,2.2-1.3,4.3-2.6,6.4-4,2.1-1.4,4.2-2.8,6.2-4.3,0,0,.1,0,.1,0,2-1.5,4-2.9,6-4.4,1.9-1.5,4-3,5.9-4.6,5.8-4.7,11.4-9.9,16.6-15.2,17.5-17.9,31.9-38.8,42.4-61.9l-24.3-43.5c-.6,2.3-1.3,4.7-1.9,6.9-.6,2.1-1.3,4.1-2,6.1-.1,.4-.2,.9-.4,1.2-.7,2.1-1.5,4.3-2.4,6.3-.8,2.3-1.8,4.5-2.8,6.7-.9,2.2-1.9,4.3-3,6.4-1,2.2-2.1,4.3-3.3,6.4-2.3,4.2-4.7,8.3-7.4,12.2-3.8,5.9-8.1,11.6-12.7,17,0,.1-.2,.2-.2,.3-3,3.5-6.1,6.9-9.4,10.2-1.5,1.6-3.2,3.2-4.9,4.7-.1,0-.2,.2-.3,.2-1.5,1.5-3.1,2.9-4.7,4.1-.2,.2-.5,.5-.9,.8-1.5,1.3-2.9,2.4-4.4,3.5-.5,.5-1.2,1-1.8,1.4-1.5,1.3-3.1,2.4-4.7,3.5,0,0-.1,.1-.2,.1-1.9,1.5-3.8,2.8-5.8,4-3.2,2.1-6.4,4.1-9.7,6-2.9,1.6-5.9,3.3-8.9,4.7-1.5,.8-3,1.5-4.6,2.2-1.4,.7-2.8,1.3-4.3,1.9-.6,.3-1.2,.5-1.9,.8-1.8,.8-3.7,1.5-5.5,2.2-.8,.3-1.5,.6-2.3,.9-1.6,.6-3.3,1.2-5,1.7-3.7,1.2-7.4,2.3-11.2,3.3-2.7,.7-5.3,1.3-8,1.8h0c-2.2,.5-4.4,.9-6.6,1.2-1.5,.3-3.1,.5-4.6,.7-1.1,.2-2.2,.3-3.2,.4-1.5,.2-3,.4-4.6,.5-1.3,.2-2.7,.3-4.1,.3-1.3,.2-2.7,.2-4,.2-2.7,.2-5.4,.2-8.2,.2-49.2,0-93.7-20.3-125.5-53-3.3-3.4-6.6-7-9.7-10.7-6.1-7.4-11.6-15.3-16.5-23.7-2.4-4.2-4.7-8.5-6.8-12.9-1-2.2-2.1-4.4-3-6.6-2.9-6.8-5.3-13.7-7.3-20.9-.7-2.4-1.3-4.7-1.8-7.2-3.1-13-4.7-26.5-4.7-40.3s.3-12,.9-17.9h0c5-49.8,30.8-93.3,68.6-122h0c4.2-3.2,8.5-6.1,13-8.9,2.3-1.4,4.6-2.7,6.9-4.1,4.6-2.6,9.4-4.9,14.2-7.1,21.9-9.8,46.1-15.3,71.7-15.3h.3c2.6,0,5.1,0,7.7,.2,.5,0,1.1,0,1.6,0,2.6,0,5.2,.3,7.7,.5,.4,0,.9,0,1.3,.1,2.3,.2,4.6,.5,6.9,.9,.9,.1,1.8,.2,2.7,.4,2.1,.4,4.2,.7,6.3,1.1,1.3,.3,2.6,.5,3.9,.9,4.1,.9,8,1.9,12,3.1,1.6,.4,3.2,.9,4.7,1.5,3.8,1.3,7.5,2.6,11.3,4.1,1.6,.6,3.2,1.3,4.7,2,3,1.3,6,2.7,8.9,4.3,.5,.2,1,.5,1.5,.8,1.5,.7,2.9,1.5,4.3,2.3,3.2,1.7,6.3,3.6,9.3,5.6,1.5,.9,3,1.9,4.5,3,2.5,1.7,4.8,3.5,7.2,5.4h0c.5,.4,1,.7,1.5,1.1,1.4,1,2.8,2.1,4.2,3.4,1.4,1.2,2.7,2.3,4.1,3.5,1.3,1.1,2.7,2.3,4,3.6,1.3,1.2,2.7,2.4,3.9,3.8,2.6,2.6,5,5.2,7.4,7.9,2.4,2.7,4.7,5.5,6.9,8.3,3.3,4.3,6.4,8.8,9.4,13.3l.4,.6c3.2,5.2,6.2,10.5,8.9,16l.8,1.5,11.3,20.1,42.5,75.8v.2c0,0,0,0,0,0l2.9,4.7,111.3,186.5-92.7,179.6h43.2l70.6-143.9,19.8-40.3,3.7-7.6,101.7-200.1c-8.8-15.1-15.8-27.4-21.5-37.3l-104.7,209.5Z"/></svg>