<?xml version="1.0" encoding="UTF-8"?><svg id="Layer_1" xmlns="http://www.w3.org/2000/svg" viewBox="0 0 196.8 119.3"><path d="M196.7,52.5c0-.5,0-.9-.1-1.3h0c0-.8-.2-1.6-.3-2.3h0c0-.5-.1-1-.2-1.5-.1-.6-.2-1.1-.4-1.7,0-.3-.1-.5-.2-.8,0,0,0-.1,0-.2-.1-.5-.3-1-.5-1.5,0-.3-.2-.5-.3-.8-.1-.3-.2-.5-.3-.8-.7-1.8-1.6-3.6-2.6-5.3-.1-.2-.3-.5-.4-.7-.1-.2-.3-.5-.5-.7-.3-.5-.6-.9-.9-1.4-.2-.2-.3-.5-.5-.7-.2-.2-.3-.4-.5-.6-.3-.4-.7-.9-1.1-1.3-.2-.2-.4-.4-.5-.6-.2-.2-.4-.4-.6-.6-.2-.2-.4-.4-.6-.6-.4-.4-.8-.8-1.2-1.1-.2-.2-.4-.4-.6-.5-.2-.2-.4-.4-.6-.5-.2-.2-.4-.4-.7-.5-.6-.4-1.1-.9-1.7-1.2-.1,0-.2-.2-.3-.2-.2-.1-.4-.3-.6-.4-.2-.1-.5-.3-.7-.4-.5-.3-1-.6-1.5-.8-.7-.4-1.5-.8-2.2-1.1-.3-.1-.5-.2-.8-.3-.8-.3-1.6-.6-2.4-.9-.3,0-.5-.2-.8-.3-.2,0-.5-.2-.8-.2,0,0,0,0-.1,0-.3,0-.5-.1-.8-.2-.3,0-.5-.1-.8-.2-1-.2-2-.4-3.1-.6-.4,0-.7,0-1.1-.1,0,0,0,0,0,0-.3,0-.7,0-1,0-.5,0-1,0-1.5,0-.3,0-.6,0-.9,0h0c-.4,0-.9,0-1.3,0-.2,0-.3,0-.4,0h-.1c-.4,0-.8,0-1.1,0-.5,0-1,.1-1.5,.2h-.2c-.3,0-.5,.1-.8,.2,0,0,0,0,0,0-.3,0-.6,0-.9,.2h-.3c0,0-.1,0-.2,.1-.4,0-.7,.1-1.1,.2-.2,0-.3,0-.4,0,0,0,0,0,0,0-.2,0-.4,.1-.6,.2-.3,0-.6,.2-.9,.2-.3,0-.6,.2-.9,.3-.3,0-.6,.2-.9,.3-.5,.2-1,.4-1.5,.6,0,0,0,0,0,0s0,0,0,0c-.3,.1-.5,.2-.8,.3,0,0-.2,0-.2,0-.3,.1-.6,.3-.9,.4-.2,0-.4,.2-.6,.3-.3,.1-.5,.3-.8,.4-.3,.1-.5,.3-.8,.4-.3,.1-.6,.3-.8,.5-.2,.2-.5,.3-.7,.5-.2,.2-.5,.3-.7,.5-.7,.5-1.5,1-2.1,1.6-.5,.4-.9,.8-1.3,1.1-.2,.2-.4,.4-.7,.6-.2,.2-.4,.4-.6,.6-.2,.2-.4,.4-.6,.6-.2,.2-.4,.4-.6,.6-.6,.7-1.2,1.4-1.8,2.1-.6,.7-1.1,1.5-1.6,2.3-.5,.8-1,1.6-1.5,2.4-.4,.8-.9,1.6-1.2,2.5,0,0,0,0,0,0l4,7.1h0c.2-.9,.5-1.8,.8-2.6,0-.2,.1-.4,.2-.6,.1-.2,.2-.5,.3-.8,0-.2,.2-.4,.3-.6,0,0,0-.2,.1-.2,.1-.3,.3-.6,.4-.9h0c.2-.3,.4-.7,.5-1,.1-.2,.3-.5,.4-.7,.1-.2,.3-.4,.4-.6,.2-.3,.4-.7,.6-1,.2-.2,.3-.5,.5-.8,0,0,0-.1,.1-.2,.1-.2,.3-.4,.4-.6,.1-.2,.2-.3,.3-.4,.3-.4,.6-.7,.9-1,.2-.3,.5-.6,.8-.8h.1c.4-.5,.8-.9,1.2-1.3,0,0,0,0,0,0,.2-.2,.3-.3,.5-.4,.4-.3,.8-.7,1.2-1,.1,0,.2-.2,.3-.2,.6-.4,1.2-.9,1.8-1.2,.3-.2,.5-.3,.8-.5,.3-.2,.6-.3,.8-.5,0,0,0,0,0,0,.3-.2,.5-.3,.8-.4,.4-.2,.8-.4,1.2-.6,0,0,0,0,.1,0,.4-.2,.7-.3,1.1-.4,.3-.1,.6-.2,.8-.3,.4-.1,.8-.3,1.2-.4,0,0,.2,0,.3,0,.1,0,.3,0,.4-.1,0,0,.1,0,.2,0,.2,0,.4-.1,.6-.1,0,0,0,0,0,0,.3,0,.5-.1,.8-.2,0,0,0,0,0,0,.2,0,.4,0,.6-.1h.2c.3,0,.6-.1,.9-.2,0,0,0,0,0,0,.2,0,.4,0,.6,0,.1,0,.2,0,.3,0,0,0,.1,0,.2,0,.3,0,.5,0,.8,0,0,0,.2,0,.2,0,.2,0,.5,0,.7,0,0,0,0,0,.2,0,.3,0,.7,0,1,0h0c3,0,5.8,.4,8.5,1.3,11.7,3.6,20.3,14.6,20.3,27.5s-8.5,23.9-20.3,27.5c-2.7,.8-5.6,1.3-8.5,1.3h0c-.5,0-.9,0-1.3,0,0,0-.2,0-.3,0-.3,0-.6,0-1,0,0,0-.2,0-.3,0h0s0,0,0,0c-.4,0-.8,0-1.2-.1-.1,0-.2,0-.3,0-.2,0-.4,0-.5,0-.2,0-.3,0-.5,0-.1,0-.3,0-.4,0-.1,0-.3,0-.4,0-.3,0-.6-.1-.8-.2,0,0,0,0,0,0-1.1-.3-2.1-.6-3.1-1-.6-.2-1.2-.5-1.8-.8-.2,0-.4-.2-.6-.3,0,0,0,0-.1,0-.4-.2-.8-.4-1.2-.7-.3-.2-.7-.4-1-.6-.3-.2-.7-.4-1-.7s-.4-.3-.6-.4c-.2-.1-.3-.3-.5-.4-.6-.4-1.1-.9-1.7-1.3,0,0,0,0,0,0-.3-.2-.5-.5-.8-.8-.1-.1-.3-.2-.4-.4,0,0,0,0-.1-.1,0,0,0,0-.1-.1h0c-.5-.5-1-1.1-1.5-1.7,0,0-.1-.2-.2-.3-.1-.1-.2-.3-.3-.4-.3-.4-.7-.9-1-1.4-.1-.1-.2-.3-.3-.4-.1-.2-.3-.4-.4-.6,0,0,0,0,0,0,0,0,0-.1-.1-.2-.2-.3-.3-.5-.5-.8-.1-.2-.2-.3-.3-.5-.2-.4-.5-.9-.7-1.3,0,0,0,0,0,0-.6-1.2-1.3-2.5-1.9-3.6-.3-.5-.5-1-.8-1.4-.4-.7-.8-1.3-1.2-2l-5.1-8.9h0s-.8-1.4-.8-1.4l-5.8-9.8,6.5-13.3h-6.9l-5.1,10.8h0s-1.4,2.9-1.4,2.9h0c.1,.2,.2,.5,.4,.7,0,.1,.2,.3,.2,.4,0,0,0,0,0,.1,0,0,0,0,0,0l.5,.8,.3,.4,3,5.4,2.9,5.2,2.5,4.4h0s2.4,4.2,2.4,4.2c0,0,4.2,6.9,5.7,9.3,0,0,0,0,0,0,0,0,0,0,0,0,0,0,0,.2,.1,.2,0,0,0,0,0,0,0,.1,.1,.2,.2,.3,0,0,0,0,0,0,0,0,0,0,0,0,.4,.6,.8,1.3,1.2,1.9,.4,.6,.9,1.2,1.3,1.8,0,0,0,0,0,0,.2,.3,.4,.5,.6,.8,0,0,0,0,0,0,.2,.3,.5,.6,.7,.8,.5,.5,1,1.1,1.5,1.6,.4,.4,.8,.8,1.2,1.1,.4,.4,.8,.7,1.3,1.1,.9,.7,1.8,1.4,2.7,2,.3,.2,.6,.4,.9,.6,.2,0,.3,.2,.5,.3,.2,.1,.5,.3,.7,.4,.2,.1,.4,.2,.7,.4,.2,.1,.4,.2,.7,.3,.6,.3,1.2,.6,1.8,.9l.9,.4c.3,.1,.6,.2,.9,.4,.3,.1,.6,.2,.9,.3,.6,.2,1.3,.4,2,.6,.2,0,.4,.1,.7,.2,.5,.1,1.1,.3,1.6,.4,.3,0,.5,.1,.8,.2,.3,0,.5,.1,.8,.1,.3,0,.6,.1,1,.1h0s0,0,.1,0c.3,0,.7,0,1,.1h0c.3,0,.7,0,1.1,0,.4,0,.7,0,1.1,0,.5,0,.9,0,1.4,0s.8,0,1.1,0c.4,0,.9,0,1.3,0,.3,0,.6,0,.9,0,.7,0,1.5-.2,2.2-.3,.2,0,.5,0,.7-.1,0,0,0,0,0,0,.2,0,.5,0,.7-.1h0s.1,0,.2,0c.1,0,.3,0,.4,0,.1,0,.2,0,.4,0,0,0,.1,0,.2,0,.3,0,.7-.2,1-.2,.2,0,.4,0,.6-.2,.4-.1,.7-.2,1-.3,.3,0,.5-.2,.8-.3,.1,0,.3,0,.4-.2,.2,0,.5-.2,.7-.3,.4-.1,.8-.3,1.1-.4,.3-.1,.6-.3,.9-.4,.3-.2,.6-.3,.9-.5,0,0,0,0,0,0,0,0,0,0,0,0,.3-.1,.6-.3,.9-.5,0,0,.1,0,.2,0,.2-.1,.4-.2,.6-.4,0,0,.2-.1,.3-.1,.2-.1,.4-.2,.6-.3,.1,0,.2-.1,.3-.2,.2-.1,.5-.3,.7-.5,.6-.4,1.2-.8,1.7-1.2,.3-.2,.6-.4,.8-.6,.5-.4,1.1-.9,1.6-1.3,.2-.2,.5-.5,.8-.7,0,0,0,0,0,0,.2-.2,.5-.5,.7-.7,1-1,1.8-2,2.7-3,0,0,0,0,0-.1,.2-.3,.4-.5,.6-.8,.2-.3,.4-.5,.6-.8,0,0,0,0,0,0,3.6-5.3,5.9-11.6,6.1-18.4,0-.1,0-.2,0-.3v-2c0-.3,0-.6,0-.9,0,0,0,0,0,0Z"/><path d="M91.9,83.2l-17-29.4-1.1-2-.8-1.5-2.9-4.9V0h-6.1V35.3c-1.9-2.8-4.3-5.4-6.9-7.5l-.9-.7c-.3-.2-.6-.4-.8-.6,0,0,0,0,0,0-.3-.2-.6-.4-.9-.6-.6-.4-1.2-.8-1.8-1.1,0,0,0,0,0,0-.3-.2-.6-.4-1-.5-.3-.2-.7-.3-1-.5-.7-.3-1.3-.6-2-.9-1.2-.5-2.5-1-3.8-1.3-1.3-.4-2.5-.6-3.9-.9-.3,0-.7-.1-1.1-.2-.8,0-1.5-.2-2.3-.2-.4,0-.8,0-1.3,0-.4,0-.7,0-1.1,0h0c-.4,0-.8,0-1.2,0-.2,0-.4,0-.7,0-.3,0-.6,0-.8,0-.7,0-1.5,.1-2.2,.2-.3,0-.7,0-1,.2,0,0-.2,0-.2,0-.4,0-.9,.2-1.3,.2-.6,.1-1.2,.3-1.8,.4-.3,0-.6,.2-.9,.3-.1,0-.2,0-.3,0-.3,.1-.6,.2-.9,.3-.6,.2-1.2,.4-1.9,.7-.3,.1-.7,.3-1,.4-1.2,.5-2.3,1.1-3.4,1.7-.3,.1-.5,.3-.8,.5-.9,.5-1.8,1.1-2.6,1.8-.3,.2-.6,.4-.8,.6-.3,.2-.5,.4-.8,.7-.3,.2-.5,.5-.8,.7-.3,.2-.5,.5-.8,.7-.3,.2-.5,.5-.8,.7-.2,.2-.5,.5-.7,.8-.2,.2-.4,.4-.6,.7,0,0,0,.1-.1,.2-.2,.2-.4,.5-.6,.7-.5,.5-.9,1.1-1.3,1.7-.2,.3-.4,.5-.6,.8,0,0,0,0,0,0-2.3,3.3-4,7.1-5.1,11.1C.4,48.9,0,51.5,0,54.2c0,.3,0,.5,0,.8,0,.6,0,1.2,0,1.8,0,.2,0,.4,0,.6,0,.3,0,.5,0,.8,0,.2,0,.4,0,.5,0,.2,0,.5,0,.7,0,.3,0,.6,.1,.9,0,.6,.2,1.1,.3,1.7,.1,.6,.2,1.1,.4,1.7,.2,.8,.5,1.7,.7,2.5,0,.2,.1,.4,.2,.5,0,.2,.1,.3,.2,.5,.8,2.1,1.7,4,2.9,5.9,.1,.2,.2,.4,.4,.6,.2,.3,.4,.6,.6,.9,.3,.5,.6,.9,.9,1.3h0c.3,.4,.7,.9,1,1.3,.5,.6,1.1,1.3,1.7,1.9,.2,.2,.4,.4,.6,.6,.6,.6,1.2,1.2,1.9,1.7,.2,.2,.4,.4,.6,.5,.4,.3,.9,.7,1.3,1,.2,.2,.4,.3,.7,.5s.5,.3,.7,.5c.5,.3,.9,.6,1.4,.9,.7,.4,1.5,.8,2.2,1.2,.2,.1,.5,.2,.8,.4,.2,.1,.5,.2,.8,.4,.3,.1,.5,.2,.8,.3,.5,.2,1,.4,1.5,.6,.4,.2,.8,.3,1.3,.4,.2,0,.5,.2,.7,.2,.2,0,.4,.1,.6,.2,.2,0,.4,.1,.7,.2,.3,0,.7,.2,1,.2,.2,0,.4,0,.6,.1,1.6,.3,3.2,.6,4.9,.7,.5,0,1,0,1.5,0,.3,0,.6,0,.9,0s.7,0,1,0c.3,0,.5,0,.8,0,.3,0,.5,0,.8,0,.4,0,.9,0,1.3-.1,.8,0,1.5-.2,2.3-.3,.2,0,.3,0,.5,0,.3,0,.6-.1,.8-.2,.1,0,.3,0,.4,0,.8-.2,1.5-.4,2.3-.6,.4-.1,.7-.2,1-.3,0,0,.1,0,.2,0,1.2-.4,2.4-.9,3.5-1.4,.8-.4,1.5-.7,2.2-1.1,.4-.2,.7-.4,1.1-.6,.4-.2,.7-.4,1.1-.7,.3-.2,.7-.5,1-.7,0,0,0,0,0,0,.3-.2,.7-.5,1-.7s.6-.5,1-.8c.9-.8,1.9-1.6,2.7-2.5,2.9-2.9,5.2-6.4,7-10.2l-4-7.2c0,.4-.2,.8-.3,1.1-.1,.3-.2,.7-.3,1,0,0,0,.1,0,.2-.1,.3-.2,.7-.4,1-.1,.4-.3,.7-.5,1.1-.2,.4-.3,.7-.5,1.1-.2,.4-.4,.7-.5,1-.4,.7-.8,1.4-1.2,2-.6,1-1.3,1.9-2.1,2.8,0,0,0,0,0,0-.5,.6-1,1.1-1.6,1.7-.2,.3-.5,.5-.8,.8,0,0,0,0,0,0-.2,.2-.5,.5-.8,.7,0,0,0,0-.1,.1-.2,.2-.5,.4-.7,.6,0,0-.2,.2-.3,.2-.2,.2-.5,.4-.8,.6,0,0,0,0,0,0-.3,.2-.6,.5-1,.7-.5,.4-1,.7-1.6,1-.5,.3-1,.5-1.5,.8-.2,.1-.5,.2-.8,.4-.2,.1-.5,.2-.7,.3-.1,0-.2,0-.3,.1-.3,.1-.6,.2-.9,.4-.1,0-.2,0-.4,.1-.3,.1-.5,.2-.8,.3-.6,.2-1.2,.4-1.8,.5-.4,.1-.9,.2-1.3,.3h0c-.4,0-.7,.1-1.1,.2-.2,0-.5,0-.8,.1-.2,0-.4,0-.5,0-.2,0-.5,0-.8,0-.2,0-.4,0-.7,0-.2,0-.4,0-.7,0-.4,0-.9,0-1.3,0-8.1,0-15.4-3.3-20.6-8.7-.5-.6-1.1-1.1-1.6-1.8-1-1.2-1.9-2.5-2.7-3.9-.4-.7-.8-1.4-1.1-2.1-.2-.4-.3-.7-.5-1.1-.5-1.1-.9-2.2-1.2-3.4-.1-.4-.2-.8-.3-1.2-.5-2.1-.8-4.3-.8-6.6s0-2,.2-2.9h0c.8-8.2,5.1-15.3,11.3-20.1h0c.7-.5,1.4-1,2.1-1.5,.4-.2,.8-.5,1.1-.7,.8-.4,1.5-.8,2.3-1.2,3.6-1.6,7.6-2.5,11.8-2.5h0c.4,0,.8,0,1.3,0,0,0,.2,0,.3,0,.4,0,.8,0,1.3,0,0,0,.1,0,.2,0,.4,0,.8,0,1.1,.1,.2,0,.3,0,.4,0,.3,0,.7,.1,1,.2,.2,0,.4,0,.6,.1,.7,.1,1.3,.3,2,.5,.3,0,.5,.1,.8,.2,.6,.2,1.2,.4,1.8,.7,.3,0,.5,.2,.8,.3,.5,.2,1,.4,1.5,.7,0,0,.2,0,.2,.1,.2,.1,.5,.2,.7,.4,.5,.3,1,.6,1.5,.9,.2,.1,.5,.3,.7,.5,.4,.3,.8,.6,1.2,.9h0c0,0,.2,.1,.2,.2,.2,.2,.5,.4,.7,.6,.2,.2,.4,.4,.7,.6,.2,.2,.4,.4,.7,.6,.2,.2,.4,.4,.6,.6,.4,.4,.8,.9,1.2,1.3,.4,.4,.8,.9,1.1,1.4,.6,.7,1.1,1.4,1.5,2.2h0c.5,1,1,1.8,1.5,2.7v.2c.1,0,2,3.3,2,3.3l7,12.5h0s0,0,0,0l.5,.8,18.3,30.7-15.2,29.5h7.1l11.6-23.7,3.2-6.6,.6-1.2,16.7-32.9c-1.4-2.5-2.6-4.5-3.5-6.1l-17.2,34.4Z"/></svg>