<svg width="834" height="236" viewBox="0 0 834 236" fill="none" xmlns="http://www.w3.org/2000/svg">
<path d="M266 119.5C266 181.632 215.632 232 153.5 232C91.368 232 41 181.632 41 119.5C41 57.368 91.368 7 153.5 7C215.632 7 266 57.368 266 119.5Z" fill="black"/>
<mask id="mask0_46_2" style="mask-type:alpha" maskUnits="userSpaceOnUse" x="41" y="7" width="225" height="225">
<path d="M266 119.5C266 181.632 215.632 232 153.5 232C91.368 232 41 181.632 41 119.5C41 57.368 91.368 7 153.5 7C215.632 7 266 57.368 266 119.5Z" fill="black"/>
</mask>
<g mask="url(#mask0_46_2)">
<ellipse cx="153" cy="124.5" rx="58" ry="57.5" fill="white"/>
<path d="M185 -10H211V181H185V-10Z" fill="white"/>
</g>
</svg>
