<?xml version="1.0" standalone="no"?>
<!DOCTYPE svg PUBLIC "-//W3C//DTD SVG 20010904//EN"
 "http://www.w3.org/TR/2001/REC-SVG-20010904/DTD/svg10.dtd">
<svg version="1.0" xmlns="http://www.w3.org/2000/svg"
 width="750.000000pt" height="240.000000pt" viewBox="0 0 750.000000 240.000000"
 preserveAspectRatio="xMidYMid meet">

<g transform="translate(0.000000,240.000000) scale(0.100000,-0.100000)"
fill="#000000" stroke="none">
<path d="M3120 1971 l0 -309 -67 67 c-202 201 -499 244 -758 108 -34 -18 -92
-64 -136 -107 -172 -171 -231 -417 -154 -645 33 -101 65 -154 138 -232 75 -80
160 -136 262 -170 70 -24 95 -28 200 -28 105 0 130 4 200 28 44 15 108 45 142
67 77 51 170 149 207 221 l29 55 -36 64 -36 64 -11 -29 c-60 -164 -186 -288
-337 -335 -89 -27 -227 -27 -316 0 -127 39 -246 142 -306 264 -39 79 -50 133
-51 232 -1 390 415 637 763 452 103 -55 160 -124 272 -324 55 -98 177 -309
273 -468 l172 -289 -51 -101 c-28 -55 -89 -173 -135 -262 -46 -88 -84 -164
-84 -167 0 -4 28 -7 63 -7 l62 0 292 585 292 584 -32 55 -32 55 -156 -311
-155 -310 -197 340 -197 341 0 410 0 411 -60 0 -60 0 0 -309z"/>
<path d="M4742 1910 c-169 -45 -320 -158 -396 -300 l-29 -54 34 -63 c34 -62
49 -77 49 -48 0 28 67 149 109 197 53 60 137 115 220 144 88 31 230 33 324 4
163 -50 308 -206 346 -370 15 -64 13 -196 -3 -256 -86 -323 -452 -479 -750
-321 -94 50 -160 125 -245 278 -40 73 -114 201 -162 285 l-89 151 55 116 c30
63 55 118 55 121 0 3 -28 6 -62 6 l-63 -1 -58 -125 -58 -126 107 -192 c255
-458 325 -548 486 -625 86 -41 204 -71 283 -71 79 0 197 30 284 72 166 80 298
250 337 438 30 141 2 310 -72 445 -42 77 -176 204 -256 243 -144 70 -304 89
-446 52z"/>
</g>
</svg>
