<?xml version="1.0" standalone="no"?>
<!DOCTYPE svg PUBLIC "-//W3C//DTD SVG 20010904//EN"
 "http://www.w3.org/TR/2001/REC-SVG-20010904/DTD/svg10.dtd">
<svg version="1.0" xmlns="http://www.w3.org/2000/svg"
 width="750.000000pt" height="240.000000pt" viewBox="0 0 750.000000 240.000000"
 preserveAspectRatio="xMidYMid meet">

<g transform="translate(0.000000,240.000000) scale(0.100000,-0.100000)"
fill="#000000" stroke="none">
<path d="M3250 1816 l0 -255 -55 59 c-238 249 -662 185 -815 -125 -41 -81 -63
-193 -55 -270 15 -133 66 -234 163 -327 193 -184 490 -185 692 -2 46 41 110
135 110 160 0 9 -12 38 -26 62 l-27 46 -19 -49 c-124 -315 -554 -354 -737 -67
-72 115 -82 276 -22 396 42 85 112 156 198 198 64 31 74 33 173 33 102 0 109
-1 182 -38 98 -48 146 -101 233 -259 37 -68 131 -228 208 -357 77 -129 142
-241 144 -250 2 -9 -43 -109 -101 -221 -58 -113 -106 -208 -106 -212 0 -5 22
-8 49 -8 l49 0 235 470 235 471 -26 46 -25 46 -124 -248 c-69 -136 -128 -244
-132 -239 -4 5 -76 127 -159 271 l-152 263 0 330 0 330 -45 0 -45 0 0 -254z"/>
<path d="M4615 1784 c-160 -22 -318 -126 -392 -260 l-22 -39 31 -53 30 -53 23
55 c41 100 112 172 220 223 54 25 71 28 165 28 99 0 109 -2 173 -33 86 -43
156 -113 199 -199 31 -64 33 -73 33 -178 0 -100 -3 -115 -28 -167 -83 -170
-265 -270 -440 -241 -135 23 -241 101 -311 228 -21 39 -81 143 -133 232 l-94
162 46 90 c25 50 45 93 45 96 0 3 -23 5 -51 5 l-50 0 -45 -96 c-24 -52 -44
-100 -44 -106 0 -12 125 -236 219 -393 76 -127 161 -217 241 -257 201 -100
426 -69 582 80 112 107 161 218 161 367 -1 273 -196 485 -468 508 -33 2 -73 3
-90 1z"/>
</g>
</svg>
