<?xml version="1.0" encoding="UTF-8"?><svg id="Layer_1" xmlns="http://www.w3.org/2000/svg" viewBox="0 0 366.7 366.7"><defs><style>.cls-1{fill:#f1f2f2;}</style></defs><path d="M366.7,183.4c0,101.3-82.1,183.4-183.4,183.4S0,284.6,0,183.4,82.1,0,183.4,0s183.4,82.1,183.4,183.4Z"/><g><path class="cls-1" d="M325.7,180.8c0-.7-.1-1.3-.2-2h0c-.1-1.2-.2-2.2-.4-3.3h0c-.1-.7-.2-1.4-.3-2.2-.2-.8-.3-1.6-.6-2.4-.1-.4-.2-.8-.3-1.2,0,0,0-.1,0-.2-.2-.7-.4-1.4-.7-2.1-.1-.4-.3-.8-.4-1.2-.1-.4-.3-.8-.4-1.1-1-2.6-2.3-5.2-3.7-7.6-.2-.3-.4-.7-.6-1-.2-.3-.4-.7-.7-1-.4-.7-.9-1.3-1.4-2-.2-.3-.5-.7-.7-1-.2-.3-.5-.6-.7-.9-.5-.6-1-1.2-1.5-1.8-.3-.3-.5-.6-.8-.9-.3-.3-.6-.6-.8-.9-.3-.3-.6-.6-.8-.8-.6-.6-1.2-1.1-1.8-1.6-.3-.3-.6-.5-.9-.8-.3-.3-.6-.5-.9-.8-.3-.3-.6-.5-1-.7-.8-.6-1.7-1.2-2.5-1.8-.2-.1-.3-.2-.5-.4-.3-.2-.6-.4-.9-.6-.3-.2-.7-.4-1.1-.6-.7-.4-1.4-.8-2.1-1.2-1.1-.6-2.1-1.1-3.3-1.6-.4-.2-.8-.3-1.1-.5-1.1-.5-2.3-.9-3.4-1.3-.4-.1-.8-.3-1.2-.4-.4-.1-.7-.2-1.1-.3,0,0-.1,0-.1,0-.4-.1-.8-.2-1.1-.3-.4-.1-.8-.2-1.2-.3-1.5-.3-3-.6-4.5-.8-.5,0-1-.1-1.6-.2,0,0,0,0,0,0-.5,0-1-.1-1.5-.1-.7,0-1.5,0-2.2-.1-.4,0-.9,0-1.3,0h0c-.6,0-1.3,0-1.9,0-.2,0-.4,0-.6,0h-.2c-.6,0-1.1,0-1.6,.1-.7,0-1.4,.1-2.2,.2h-.3c-.4,0-.8,.1-1.2,.2,0,0,0,0-.1,0-.4,0-.9,.1-1.3,.2h-.4c0,.1-.2,.1-.2,.1-.5,0-1,.2-1.5,.3-.2,0-.4,.1-.6,.1,0,0,0,0-.1,0-.3,0-.6,.2-.9,.2-.4,.1-.9,.2-1.3,.4-.4,.1-.8,.3-1.3,.4-.4,.1-.8,.3-1.2,.4-.7,.3-1.4,.5-2.1,.8,0,0,0,0,0,0s0,0-.1,0c-.4,.2-.8,.3-1.1,.5-.1,0-.2,0-.3,.1-.4,.2-.9,.4-1.3,.6-.3,.1-.6,.3-.9,.5-.4,.2-.8,.4-1.1,.6-.4,.2-.8,.4-1.1,.6-.4,.2-.8,.4-1.2,.7-.4,.2-.7,.4-1.1,.7-.3,.2-.7,.5-1,.7-1.1,.7-2.1,1.5-3.1,2.3-.7,.5-1.3,1.1-2,1.7-.3,.3-.6,.6-1,.9-.3,.3-.6,.6-.9,.9-.3,.3-.6,.6-.9,.9-.3,.3-.6,.6-.9,.9-.9,1-1.8,2-2.6,3.1-.8,1.1-1.6,2.2-2.4,3.3-.8,1.1-1.4,2.3-2.1,3.5-.6,1.2-1.2,2.4-1.8,3.6,0,0,0,0,0,0l5.8,10.2h0c.3-1.3,.7-2.6,1.2-3.8,.1-.3,.2-.5,.3-.8,.1-.4,.3-.7,.4-1.1,.1-.3,.2-.6,.4-.9,0-.1,0-.2,.2-.3,.2-.4,.4-.9,.6-1.3h0c.3-.5,.5-1,.8-1.4,.2-.3,.4-.7,.6-1,.2-.3,.4-.6,.6-.9,.3-.5,.6-1,.9-1.4,.2-.4,.5-.7,.8-1.1,0,0,.1-.2,.2-.3,.2-.3,.4-.6,.6-.8,.2-.2,.3-.4,.5-.6,.4-.5,.9-1,1.3-1.5,.3-.4,.7-.8,1.1-1.2l.2-.2c.6-.6,1.1-1.1,1.7-1.7,0,0,0,0,.1-.1,.2-.2,.5-.4,.7-.6,.6-.5,1.2-1,1.8-1.5,.2-.1,.3-.2,.5-.4,.9-.6,1.7-1.2,2.6-1.8,.4-.2,.8-.5,1.2-.7,.4-.2,.8-.5,1.2-.7,0,0,0,0,0,0,.4-.2,.8-.4,1.2-.6,.6-.3,1.1-.5,1.7-.8,0,0,.1,0,.2,0,.5-.2,1.1-.4,1.6-.7,.4-.2,.8-.3,1.2-.4,.6-.2,1.2-.4,1.8-.6,.1,0,.3-.1,.5-.1,.2,0,.4-.1,.6-.2,.1,0,.2,0,.3,0,.3,0,.6-.1,.9-.2,0,0,0,0,.1,0,.4-.1,.8-.2,1.2-.3,0,0,0,0,0,0,.3,0,.6-.1,.9-.2h.3c.4-.1,.9-.2,1.3-.2,0,0,0,0,.1,0,.3,0,.6,0,.8-.1,.1,0,.3,0,.4,0,0,0,.2,0,.3,0,.4,0,.8,0,1.1-.1,.1,0,.2,0,.4,0,.3,0,.7,0,1,0,0,0,.1,0,.2,0,.5,0,1,0,1.5,0h.1c4.3,0,8.5,.7,12.4,1.9,17,5.3,29.3,21.1,29.3,39.9s-12.3,34.6-29.3,39.8c-3.9,1.2-8.1,1.9-12.4,1.9h0c-.7,0-1.3,0-1.9,0-.1,0-.2,0-.4,0-.5,0-.9,0-1.4-.1-.1,0-.3,0-.4,0h-.1s0,0-.1,0c-.6,0-1.2-.1-1.8-.2-.2,0-.3,0-.4,0-.3,0-.5,0-.8-.1-.2,0-.5-.1-.7-.1-.2,0-.4,0-.6-.1-.2,0-.4,0-.6-.1-.4-.1-.8-.2-1.2-.3,0,0,0,0,0,0-1.5-.4-3.1-.9-4.5-1.5-.9-.3-1.7-.7-2.6-1.1-.3-.1-.6-.2-.8-.4,0,0-.1,0-.2,0-.6-.3-1.2-.6-1.8-1-.5-.3-1-.5-1.4-.8-.5-.3-1-.6-1.4-1s-.6-.4-.9-.6c-.3-.2-.5-.4-.8-.6-.8-.6-1.6-1.2-2.4-1.9,0,0,0,0,0,0-.4-.3-.8-.7-1.2-1.1-.2-.2-.4-.3-.6-.5,0,0-.1-.1-.2-.1,0,0-.1-.1-.2-.2h0c-.8-.8-1.5-1.6-2.2-2.4-.1-.1-.2-.2-.3-.4-.2-.2-.3-.4-.5-.6-.5-.7-1-1.3-1.5-2-.1-.2-.3-.4-.4-.6-.2-.3-.4-.6-.6-.9,0,0,0,0,0,0,0-.1-.1-.2-.2-.3-.2-.4-.5-.8-.7-1.2-.2-.2-.3-.5-.4-.7-.4-.6-.7-1.3-1-1.9,0,0,0,0,0-.1-.9-1.8-1.8-3.6-2.8-5.3-.4-.7-.8-1.4-1.2-2.1-.6-1-1.1-2-1.7-2.9l-7.3-12.9h0s-1.2-2.1-1.2-2.1l-8.5-14.1,9.4-19.2h-10l-7.4,15.7h0s-2.1,4.2-2.1,4.2h0c.2,.3,.4,.7,.6,1,.1,.2,.2,.4,.3,.6,0,0,0,.1,.1,.2,0,0,0,0,0,.1l.7,1.2,.4,.7,4.4,7.8,4.2,7.5,3.6,6.4h0s3.4,6.1,3.4,6.1c0,0,6.1,10,8.2,13.4,0,0,0,0,0,0,0,0,0,0,0,.1,0,.1,.1,.2,.2,.3,0,0,0,0,0,0,.1,.2,.2,.3,.2,.4,0,0,0,0,0,.1,0,0,0,0,0,0,.6,.9,1.1,1.8,1.7,2.7,.6,.9,1.2,1.8,1.9,2.6,0,0,0,0,0,.1,.3,.4,.6,.8,.9,1.1,0,0,0,0,0,0,.3,.4,.7,.8,1,1.2,.7,.8,1.5,1.6,2.2,2.3,.6,.6,1.2,1.1,1.8,1.7,.6,.5,1.2,1.1,1.8,1.6,1.3,1,2.5,2,3.9,2.9,.4,.3,.8,.6,1.3,.8,.2,.1,.4,.3,.7,.4,.3,.2,.7,.4,1,.6,.3,.2,.6,.4,1,.6,.3,.2,.7,.3,1,.5,.8,.4,1.7,.9,2.6,1.2l1.3,.6c.4,.2,.9,.3,1.3,.5,.4,.2,.9,.3,1.4,.5,.9,.3,1.9,.6,2.9,.9,.3,0,.6,.2,.9,.3,.8,.2,1.5,.4,2.3,.6,.4,0,.8,.2,1.2,.2,.4,0,.8,.1,1.2,.2,.5,0,.9,.2,1.4,.2h0c0,0,.1,0,.2,0,.5,0,1,.1,1.5,.2h0c.5,0,1,.1,1.6,.1,.5,0,1,0,1.5,0,.7,0,1.4,0,2,0s1.1,0,1.6,0c.6,0,1.2,0,1.8,0,.4,0,.9,0,1.3-.1,1.1,0,2.1-.2,3.1-.4,.3,0,.7-.1,1-.2,0,0,0,0,0,0,.3,0,.7-.1,1.1-.2h0c0,0,.2,0,.2,0,.2,0,.4,0,.6-.1,.2,0,.3,0,.5-.1,0,0,.2,0,.2,0,.5-.1,1-.2,1.4-.4,.3,0,.6-.1,.9-.2,.5-.1,1-.3,1.5-.5,.4-.1,.8-.2,1.1-.4,.2,0,.4-.1,.6-.2,.3-.1,.7-.2,1-.4,.6-.2,1.1-.4,1.6-.7,.4-.2,.9-.4,1.3-.6,.5-.2,.9-.4,1.4-.7,0,0,0,0,0,0,0,0,0,0,0,0,.4-.2,.9-.4,1.3-.7,0,0,.1,0,.2-.1,.3-.2,.6-.3,.9-.5,.1,0,.2-.1,.4-.2,.3-.2,.6-.3,.8-.5,.1,0,.3-.2,.4-.3,.4-.2,.7-.4,1.1-.7,.9-.6,1.7-1.1,2.5-1.8,.4-.3,.8-.6,1.2-.9,.8-.6,1.5-1.3,2.3-1.9,.4-.3,.7-.7,1.1-1,0,0,0,0,0,0,.3-.3,.7-.7,1-1,1.4-1.4,2.7-2.9,3.9-4.4,0,0,0-.1,.1-.1,.3-.4,.6-.8,.9-1.2,.3-.4,.6-.8,.8-1.2,0,0,0,0,0,0,5.3-7.6,8.5-16.7,8.9-26.6,0-.2,0-.3,0-.5v-2.8c0-.4,0-.9,0-1.3,0,0,0,0,0,0Z"/><path class="cls-1" d="M174,225.1l-24.6-42.6-1.6-2.9-1.2-2.1-4.2-7.1V104.7h-8.9v51.1c-2.8-4.1-6.2-7.8-10-10.9l-1.3-1c-.4-.3-.8-.6-1.2-.9,0,0,0,0,0,0-.4-.3-.9-.6-1.3-.9-.9-.6-1.8-1.1-2.7-1.6,0,0,0,0,0,0-.5-.3-.9-.5-1.4-.8-.5-.2-1-.5-1.4-.7-1-.5-1.9-.9-2.9-1.3-1.8-.8-3.6-1.4-5.5-1.9-1.8-.5-3.7-.9-5.6-1.2-.5,0-1-.2-1.5-.2-1.1-.1-2.2-.3-3.3-.3-.6,0-1.2,0-1.9,0-.5,0-1.1,0-1.6,0h0c-.6,0-1.2,0-1.8,0-.3,0-.6,0-1,0-.4,0-.8,0-1.2,0-1.1,0-2.1,.2-3.1,.3-.5,0-1,.1-1.4,.2-.1,0-.2,0-.3,0-.6,.1-1.3,.2-1.9,.4-.9,.2-1.7,.4-2.6,.6-.4,.1-.9,.2-1.3,.4-.2,0-.3,0-.5,.1-.5,.1-.9,.3-1.4,.4-.9,.3-1.8,.6-2.7,1-.5,.2-1,.4-1.5,.6-1.7,.8-3.3,1.6-4.9,2.5-.4,.2-.7,.4-1.1,.7-1.3,.8-2.5,1.6-3.7,2.5-.4,.3-.8,.6-1.2,.9-.4,.3-.8,.6-1.2,1-.4,.3-.8,.7-1.1,1-.4,.3-.7,.7-1.1,1-.4,.3-.7,.7-1.1,1.1-.3,.4-.7,.7-1,1.1-.3,.3-.6,.6-.9,1,0,0-.1,.1-.2,.2-.3,.3-.6,.7-.9,1.1-.7,.8-1.3,1.6-1.9,2.4-.3,.4-.6,.8-.8,1.2,0,0,0,0,0,0-3.3,4.8-5.8,10.3-7.3,16.1-.9,3.6-1.5,7.5-1.6,11.4,0,.4,0,.8,0,1.2,0,.9,0,1.7,0,2.6,0,.3,0,.6,0,.9,0,.4,0,.8,.1,1.2,0,.3,0,.5,0,.8,0,.3,0,.7,.1,1,0,.4,.1,.9,.2,1.3,.1,.8,.3,1.6,.4,2.4,.2,.8,.4,1.6,.6,2.4,.3,1.2,.7,2.4,1.1,3.6,0,.3,.2,.5,.3,.8,0,.2,.2,.5,.3,.8,1.1,3,2.5,5.8,4.1,8.5,.2,.3,.3,.6,.5,.9,.3,.4,.6,.9,.8,1.3,.4,.7,.9,1.3,1.4,1.9h0c.5,.7,1,1.3,1.5,1.9,.8,.9,1.6,1.9,2.5,2.8,.3,.3,.6,.6,.9,.9,.9,.9,1.8,1.7,2.7,2.5,.3,.3,.6,.5,.9,.8,.6,.5,1.3,1,1.9,1.5,.3,.2,.7,.5,1,.7s.7,.5,1,.7c.7,.5,1.4,.9,2.1,1.3,1,.6,2.1,1.2,3.2,1.8,.4,.2,.7,.4,1.1,.6,.4,.2,.7,.3,1.1,.5,.4,.2,.8,.3,1.1,.5,.7,.3,1.4,.6,2.1,.8,.6,.2,1.2,.4,1.9,.6,.3,.1,.7,.2,1.1,.3,.3,0,.6,.2,.8,.2,.3,0,.6,.2,.9,.3,.5,.1,1,.3,1.5,.4,.3,0,.6,.1,.9,.2,2.3,.5,4.7,.8,7.1,1,.7,0,1.4,0,2.2,.1,.4,0,.9,0,1.3,0s1,0,1.5,0c.4,0,.8,0,1.1,0,.4,0,.8,0,1.2,0,.6,0,1.3-.1,1.9-.2,1.1-.1,2.2-.3,3.3-.5,.2,0,.5,0,.7-.1,.4,0,.8-.2,1.2-.2,.2,0,.4,0,.6-.1,1.1-.3,2.2-.5,3.3-.9,.5-.2,1-.3,1.5-.5,0,0,.2,0,.2,0,1.7-.6,3.4-1.3,5.1-2.1,1.1-.5,2.2-1.1,3.2-1.7,.5-.3,1-.6,1.5-.9,.5-.3,1-.6,1.5-1,.5-.3,1-.7,1.5-1,0,0,0,0,0,0,.5-.3,1-.7,1.4-1.1s.9-.7,1.4-1.1c1.4-1.1,2.7-2.3,4-3.6,4.2-4.3,7.6-9.2,10.1-14.7l-5.8-10.4c-.1,.5-.3,1.1-.5,1.7-.1,.5-.3,1-.5,1.5,0,.1,0,.2-.1,.3-.2,.5-.3,1-.6,1.5-.2,.5-.4,1.1-.7,1.6-.2,.5-.4,1-.7,1.5-.2,.5-.5,1-.8,1.5-.5,1-1.1,2-1.8,2.9-.9,1.4-1.9,2.8-3,4,0,0,0,0,0,0-.7,.8-1.4,1.7-2.2,2.4-.4,.4-.8,.8-1.2,1.1,0,0,0,0,0,0-.4,.3-.7,.7-1.1,1,0,0-.1,.1-.2,.2-.3,.3-.7,.6-1,.8-.1,.1-.3,.2-.4,.3-.4,.3-.7,.6-1.1,.8,0,0,0,0,0,0-.4,.3-.9,.7-1.4,1-.8,.5-1.5,1-2.3,1.4-.7,.4-1.4,.8-2.1,1.1-.3,.2-.7,.4-1.1,.5-.3,.2-.7,.3-1,.4-.1,0-.3,.1-.4,.2-.4,.2-.9,.4-1.3,.5-.2,0-.4,.1-.5,.2-.4,.1-.8,.3-1.2,.4-.9,.3-1.8,.6-2.7,.8-.6,.2-1.3,.3-1.9,.4h0c-.5,.1-1,.2-1.6,.3-.4,0-.7,.1-1.1,.2-.3,0-.5,0-.8,0-.4,0-.7,.1-1.1,.1-.3,0-.6,0-1,0-.3,0-.6,0-1,0-.6,0-1.3,0-1.9,0-11.7,0-22.3-4.8-29.9-12.6-.8-.8-1.6-1.7-2.3-2.5-1.4-1.8-2.8-3.6-3.9-5.6-.6-1-1.1-2-1.6-3.1-.2-.5-.5-1.1-.7-1.6-.7-1.6-1.3-3.3-1.7-5-.2-.6-.3-1.1-.4-1.7-.7-3.1-1.1-6.3-1.1-9.6s0-2.9,.2-4.3h0c1.2-11.8,7.3-22.2,16.3-29h0c1-.8,2-1.5,3.1-2.1,.5-.3,1.1-.7,1.6-1,1.1-.6,2.2-1.2,3.4-1.7,5.2-2.3,11-3.6,17.1-3.6h0c.6,0,1.2,0,1.8,0,.1,0,.3,0,.4,0,.6,0,1.2,0,1.8,.1,.1,0,.2,0,.3,0,.5,0,1.1,.1,1.6,.2,.2,0,.4,0,.6,.1,.5,0,1,.2,1.5,.3,.3,0,.6,.1,.9,.2,1,.2,1.9,.4,2.9,.7,.4,.1,.8,.2,1.1,.3,.9,.3,1.8,.6,2.7,1,.4,.1,.8,.3,1.1,.5,.7,.3,1.4,.6,2.1,1,.1,0,.2,.1,.4,.2,.3,.2,.7,.3,1,.5,.8,.4,1.5,.9,2.2,1.3,.4,.2,.7,.4,1.1,.7,.6,.4,1.2,.8,1.7,1.3h0c.1,0,.2,.2,.4,.3,.3,.2,.7,.5,1,.8,.3,.3,.7,.6,1,.8,.3,.3,.6,.5,.9,.9,.3,.3,.6,.6,.9,.9,.6,.6,1.2,1.2,1.8,1.9,.6,.6,1.1,1.3,1.6,2,.8,1,1.5,2.1,2.2,3.2h.1c.8,1.4,1.5,2.6,2.1,4l.2,.3,2.7,4.8,10.1,18h0s0,0,0,0l.7,1.1,26.5,44.4-22.1,42.7h10.3l16.8-34.2,4.7-9.6,.9-1.8,24.2-47.6c-2.1-3.6-3.7-6.5-5.1-8.9l-24.9,49.9Z"/></g></svg>