<?xml version="1.0" encoding="UTF-8"?><svg id="Layer_1" xmlns="http://www.w3.org/2000/svg" viewBox="0 0 96.8 58.7"><path d="M96.7,25.8c0-.2,0-.4,0-.7h0c0-.4,0-.8-.1-1.1h0c0-.3,0-.5-.1-.7,0-.3-.1-.6-.2-.8,0-.1,0-.3-.1-.4,0,0,0,0,0,0,0-.2-.1-.5-.2-.7,0-.1,0-.3-.1-.4,0-.1,0-.3-.1-.4-.3-.9-.8-1.8-1.3-2.6,0-.1-.1-.2-.2-.3,0-.1-.1-.2-.2-.3-.1-.2-.3-.5-.5-.7,0-.1-.2-.2-.2-.3,0-.1-.2-.2-.3-.3-.2-.2-.3-.4-.5-.6,0,0-.2-.2-.3-.3,0,0-.2-.2-.3-.3,0,0-.2-.2-.3-.3-.2-.2-.4-.4-.6-.6-.1,0-.2-.2-.3-.3-.1,0-.2-.2-.3-.3-.1,0-.2-.2-.3-.3-.3-.2-.6-.4-.9-.6,0,0-.1,0-.2-.1-.1,0-.2-.1-.3-.2-.1,0-.2-.1-.4-.2-.2-.1-.5-.3-.7-.4-.4-.2-.7-.4-1.1-.5-.1,0-.3-.1-.4-.2-.4-.2-.8-.3-1.2-.4-.1,0-.3,0-.4-.1-.1,0-.3,0-.4-.1,0,0,0,0,0,0-.1,0-.3,0-.4-.1-.1,0-.3,0-.4,0-.5-.1-1-.2-1.5-.3-.2,0-.4,0-.5,0,0,0,0,0,0,0-.2,0-.3,0-.5,0-.2,0-.5,0-.8,0-.2,0-.3,0-.5,0h0c-.2,0-.4,0-.6,0,0,0-.1,0-.2,0h0c-.2,0-.4,0-.6,0-.2,0-.5,0-.7,0h0c-.1,0-.3,0-.4,0,0,0,0,0,0,0-.2,0-.3,0-.4,0h-.1s0,0,0,0c-.2,0-.4,0-.5,.1,0,0-.1,0-.2,0,0,0,0,0,0,0-.1,0-.2,0-.3,0-.1,0-.3,0-.4,.1-.1,0-.3,0-.4,.1-.1,0-.3,0-.4,.1-.2,0-.5,.2-.7,.3,0,0,0,0,0,0s0,0,0,0c-.1,0-.3,.1-.4,.2,0,0,0,0-.1,0-.1,0-.3,.1-.4,.2-.1,0-.2,.1-.3,.2-.1,0-.3,.1-.4,.2-.1,0-.3,.1-.4,.2-.1,0-.3,.2-.4,.2-.1,0-.2,.1-.4,.2-.1,0-.2,.2-.4,.2-.4,.3-.7,.5-1.1,.8-.2,.2-.4,.4-.7,.6-.1,0-.2,.2-.3,.3-.1,0-.2,.2-.3,.3-.1,.1-.2,.2-.3,.3-.1,.1-.2,.2-.3,.3-.3,.3-.6,.7-.9,1.1-.3,.4-.6,.7-.8,1.1-.3,.4-.5,.8-.7,1.2-.2,.4-.4,.8-.6,1.2,0,0,0,0,0,0l2,3.5h0c.1-.4,.3-.9,.4-1.3,0,0,0-.2,.1-.3,0-.1,0-.2,.2-.4,0,0,0-.2,.1-.3,0,0,0,0,0-.1,0-.1,.1-.3,.2-.4h0c0-.2,.2-.3,.3-.5,0-.1,.1-.2,.2-.4,0-.1,.1-.2,.2-.3,.1-.2,.2-.3,.3-.5,0-.1,.2-.3,.3-.4,0,0,0,0,0,0,0,0,.1-.2,.2-.3,0,0,.1-.1,.2-.2,.1-.2,.3-.3,.5-.5,.1-.1,.2-.3,.4-.4h0c.2-.3,.4-.4,.6-.6,0,0,0,0,0,0,0,0,.2-.1,.3-.2,.2-.2,.4-.3,.6-.5,0,0,.1,0,.2-.1,.3-.2,.6-.4,.9-.6,.1,0,.3-.2,.4-.3,.1,0,.3-.2,.4-.2,0,0,0,0,0,0,.1,0,.3-.1,.4-.2,.2,0,.4-.2,.6-.3,0,0,0,0,0,0,.2,0,.4-.2,.5-.2,.1,0,.3-.1,.4-.2,.2,0,.4-.1,.6-.2,0,0,.1,0,.2,0,0,0,.1,0,.2,0,0,0,0,0,.1,0,0,0,.2,0,.3,0,0,0,0,0,0,0,.1,0,.3,0,.4,0,0,0,0,0,0,0,0,0,.2,0,.3,0h.1c.1,0,.3,0,.4,0,0,0,0,0,0,0,0,0,.2,0,.3,0,0,0,0,0,.1,0,0,0,0,0,0,0,.1,0,.3,0,.4,0,0,0,0,0,.1,0,.1,0,.2,0,.3,0,0,0,0,0,0,0,.2,0,.3,0,.5,0h0c1.5,0,2.9,.2,4.2,.6,5.8,1.8,10,7.2,10,13.5s-4.2,11.7-10,13.5c-1.3,.4-2.7,.6-4.2,.6h0c-.2,0-.4,0-.7,0,0,0,0,0-.1,0-.2,0-.3,0-.5,0,0,0,0,0-.1,0h0s0,0,0,0c-.2,0-.4,0-.6,0,0,0-.1,0-.2,0,0,0-.2,0-.3,0,0,0-.2,0-.3,0,0,0-.1,0-.2,0,0,0-.1,0-.2,0-.1,0-.3,0-.4,0,0,0,0,0,0,0-.5-.1-1-.3-1.5-.5-.3-.1-.6-.3-.9-.4,0,0-.2,0-.3-.1,0,0,0,0,0,0-.2-.1-.4-.2-.6-.3-.2,0-.3-.2-.5-.3-.2-.1-.3-.2-.5-.3s-.2-.1-.3-.2c0,0-.2-.1-.3-.2-.3-.2-.6-.4-.8-.6,0,0,0,0,0,0-.1-.1-.3-.2-.4-.4,0,0-.1-.1-.2-.2,0,0,0,0,0,0,0,0,0,0,0,0h0c-.3-.3-.5-.5-.7-.8,0,0,0,0-.1-.1,0,0-.1-.1-.2-.2-.2-.2-.3-.4-.5-.7,0,0,0-.1-.1-.2,0-.1-.1-.2-.2-.3,0,0,0,0,0,0,0,0,0,0,0-.1,0-.1-.2-.3-.2-.4,0,0-.1-.2-.1-.2-.1-.2-.2-.4-.4-.6,0,0,0,0,0,0-.3-.6-.6-1.2-1-1.8-.1-.2-.3-.5-.4-.7-.2-.3-.4-.7-.6-1l-2.5-4.4h0s-.4-.7-.4-.7l-2.9-4.8,3.2-6.5h-3.4l-2.5,5.3h0s-.7,1.4-.7,1.4h0c0,.1,.1,.2,.2,.3,0,0,0,.1,.1,.2,0,0,0,0,0,0,0,0,0,0,0,0l.2,.4v.2c.1,0,1.6,2.7,1.6,2.7l1.4,2.5,1.2,2.2h0s1.2,2.1,1.2,2.1c0,0,2.1,3.4,2.8,4.6,0,0,0,0,0,0,0,0,0,0,0,0,0,0,0,0,0,.1,0,0,0,0,0,0,0,0,0,.1,0,.1,0,0,0,0,0,0,0,0,0,0,0,0,.2,.3,.4,.6,.6,.9,.2,.3,.4,.6,.6,.9,0,0,0,0,0,0,.1,.1,.2,.3,.3,.4,0,0,0,0,0,0,.1,.1,.2,.3,.3,.4,.2,.3,.5,.5,.8,.8,.2,.2,.4,.4,.6,.6,.2,.2,.4,.4,.6,.5,.4,.3,.9,.7,1.3,1,.1,0,.3,.2,.4,.3,0,0,.2,0,.2,.1,.1,0,.2,.1,.3,.2,.1,0,.2,.1,.3,.2,.1,0,.2,.1,.3,.2,.3,.1,.6,.3,.9,.4l.4,.2c.2,0,.3,.1,.5,.2,.2,0,.3,.1,.5,.2,.3,.1,.6,.2,1,.3,.1,0,.2,0,.3,0,.3,0,.5,.1,.8,.2,.1,0,.3,0,.4,0,.1,0,.3,0,.4,0,.2,0,.3,0,.5,0h0s0,0,0,0c.2,0,.3,0,.5,0h0c.2,0,.4,0,.5,0,.2,0,.3,0,.5,0,.2,0,.5,0,.7,0s.4,0,.6,0c.2,0,.4,0,.6,0,.2,0,.3,0,.5,0,.4,0,.7,0,1.1-.1,.1,0,.2,0,.3,0,0,0,0,0,0,0,.1,0,.2,0,.4,0h0s0,0,0,0c0,0,.1,0,.2,0,0,0,.1,0,.2,0,0,0,0,0,0,0,.2,0,.3,0,.5-.1,0,0,.2,0,.3,0,.2,0,.3,0,.5-.2,.1,0,.3,0,.4-.1,0,0,.1,0,.2,0,.1,0,.2,0,.3-.1,.2,0,.4-.1,.6-.2,.2,0,.3-.1,.5-.2,.2,0,.3-.1,.5-.2,0,0,0,0,0,0,0,0,0,0,0,0,.1,0,.3-.1,.4-.2,0,0,0,0,0,0,.1,0,.2-.1,.3-.2,0,0,0,0,.1,0,0,0,.2-.1,.3-.2,0,0,0,0,.1,0,.1,0,.2-.2,.4-.2,.3-.2,.6-.4,.9-.6,.1,0,.3-.2,.4-.3,.3-.2,.5-.4,.8-.7,.1-.1,.3-.2,.4-.3,0,0,0,0,0,0,.1-.1,.2-.2,.3-.3,.5-.5,.9-1,1.3-1.5,0,0,0,0,0,0,.1-.1,.2-.3,.3-.4,0-.1,.2-.3,.3-.4,0,0,0,0,0,0,1.8-2.6,2.9-5.7,3-9,0,0,0-.1,0-.2v-1c0-.1,0-.3,0-.4,0,0,0,0,0,0Z"/><path d="M45.2,40.9l-8.4-14.5-.6-1-.4-.7-1.4-2.4V0h-3V17.4c-1-1.4-2.1-2.6-3.4-3.7l-.4-.3c-.1-.1-.3-.2-.4-.3,0,0,0,0,0,0-.1-.1-.3-.2-.5-.3-.3-.2-.6-.4-.9-.6,0,0,0,0,0,0-.2,0-.3-.2-.5-.3-.2,0-.3-.2-.5-.3-.3-.2-.7-.3-1-.5-.6-.3-1.2-.5-1.9-.7-.6-.2-1.2-.3-1.9-.4-.2,0-.3,0-.5,0-.4,0-.7,0-1.1-.1-.2,0-.4,0-.6,0-.2,0-.4,0-.5,0h0c-.2,0-.4,0-.6,0-.1,0-.2,0-.3,0-.1,0-.3,0-.4,0-.4,0-.7,0-1.1,.1-.2,0-.3,0-.5,0,0,0,0,0-.1,0-.2,0-.4,0-.6,.1-.3,0-.6,.1-.9,.2-.1,0-.3,0-.4,.1,0,0-.1,0-.2,0-.2,0-.3,0-.5,.2-.3,.1-.6,.2-.9,.3-.2,0-.3,.1-.5,.2-.6,.3-1.1,.5-1.7,.9-.1,0-.3,.1-.4,.2-.4,.3-.9,.6-1.3,.9-.1,.1-.3,.2-.4,.3-.1,.1-.3,.2-.4,.3-.1,.1-.3,.2-.4,.3-.1,.1-.3,.2-.4,.3-.1,.1-.2,.2-.4,.4-.1,.1-.2,.2-.4,.4,0,.1-.2,.2-.3,.3,0,0,0,0,0,0-.1,.1-.2,.2-.3,.4-.2,.3-.4,.5-.6,.8,0,.1-.2,.3-.3,.4,0,0,0,0,0,0-1.1,1.6-2,3.5-2.5,5.5C.2,24,0,25.3,0,26.7c0,.1,0,.3,0,.4,0,.3,0,.6,0,.9,0,.1,0,.2,0,.3,0,.1,0,.3,0,.4,0,0,0,.2,0,.3,0,.1,0,.2,0,.3,0,.2,0,.3,0,.5,0,.3,0,.6,.1,.8,0,.3,.1,.6,.2,.8,.1,.4,.2,.8,.4,1.2,0,0,0,.2,0,.3,0,0,0,.2,0,.3,.4,1,.8,2,1.4,2.9,0,0,.1,.2,.2,.3,0,.1,.2,.3,.3,.4,.2,.2,.3,.4,.5,.7h0c.2,.2,.3,.4,.5,.6,.3,.3,.5,.6,.8,.9,0,0,.2,.2,.3,.3,.3,.3,.6,.6,.9,.8,.1,0,.2,.2,.3,.3,.2,.2,.4,.3,.6,.5,.1,0,.2,.2,.3,.2s.2,.2,.3,.2c.2,.2,.5,.3,.7,.4,.4,.2,.7,.4,1.1,.6,.1,0,.2,.1,.4,.2,.1,0,.3,.1,.4,.2,.1,0,.3,.1,.4,.2,.2,0,.5,.2,.7,.3,.2,0,.4,.1,.6,.2,.1,0,.2,0,.4,.1,0,0,.2,0,.3,0,.1,0,.2,0,.3,0,.2,0,.3,0,.5,.1,0,0,.2,0,.3,0,.8,.2,1.6,.3,2.4,.3,.2,0,.5,0,.7,0,.2,0,.3,0,.5,0s.3,0,.5,0c.1,0,.3,0,.4,0,.1,0,.3,0,.4,0,.2,0,.4,0,.6,0,.4,0,.7,0,1.1-.2,0,0,.2,0,.2,0,.1,0,.3,0,.4,0,0,0,.1,0,.2,0,.4,0,.8-.2,1.1-.3,.2,0,.3-.1,.5-.2,0,0,0,0,0,0,.6-.2,1.2-.4,1.7-.7,.4-.2,.7-.4,1.1-.6,.2,0,.4-.2,.5-.3,.2-.1,.3-.2,.5-.3,.2-.1,.3-.2,.5-.3,0,0,0,0,0,0,.2-.1,.3-.2,.5-.4s.3-.2,.5-.4c.5-.4,.9-.8,1.3-1.2,1.4-1.4,2.6-3.1,3.4-5l-2-3.5c0,.2-.1,.4-.2,.6,0,.2-.1,.3-.2,.5,0,0,0,0,0,0,0,.2-.1,.3-.2,.5,0,.2-.1,.4-.2,.5,0,.2-.2,.3-.2,.5,0,.2-.2,.3-.3,.5-.2,.3-.4,.7-.6,1-.3,.5-.7,.9-1,1.4,0,0,0,0,0,0-.2,.3-.5,.6-.8,.8-.1,.1-.3,.3-.4,.4,0,0,0,0,0,0-.1,.1-.3,.2-.4,.3,0,0,0,0,0,0-.1,.1-.2,.2-.4,.3,0,0,0,0-.1,.1-.1,.1-.3,.2-.4,.3,0,0,0,0,0,0-.2,.1-.3,.2-.5,.3-.3,.2-.5,.3-.8,.5-.2,.1-.5,.3-.7,.4-.1,0-.2,.1-.4,.2-.1,0-.2,.1-.3,.2,0,0,0,0-.2,0-.1,0-.3,.1-.4,.2,0,0-.1,0-.2,0-.1,0-.3,0-.4,.1-.3,0-.6,.2-.9,.3-.2,0-.4,.1-.6,.1h0c-.2,0-.4,0-.5,0-.1,0-.3,0-.4,0,0,0-.2,0-.3,0-.1,0-.2,0-.4,0-.1,0-.2,0-.3,0-.1,0-.2,0-.3,0-.2,0-.4,0-.7,0-4,0-7.6-1.6-10.1-4.3-.3-.3-.5-.6-.8-.9-.5-.6-.9-1.2-1.3-1.9-.2-.3-.4-.7-.5-1,0-.2-.2-.4-.2-.5-.2-.5-.4-1.1-.6-1.7,0-.2-.1-.4-.1-.6-.3-1-.4-2.1-.4-3.3s0-1,0-1.5h0c.4-4,2.5-7.5,5.5-9.9h0c.3-.3,.7-.5,1-.7,.2-.1,.4-.2,.6-.3,.4-.2,.8-.4,1.1-.6,1.8-.8,3.7-1.2,5.8-1.2h0c.2,0,.4,0,.6,0,0,0,0,0,.1,0,.2,0,.4,0,.6,0,0,0,0,0,.1,0,.2,0,.4,0,.6,0,0,0,.1,0,.2,0,.2,0,.3,0,.5,0,.1,0,.2,0,.3,0,.3,0,.6,.2,1,.3,.1,0,.3,0,.4,.1,.3,.1,.6,.2,.9,.3,.1,0,.3,.1,.4,.2,.2,.1,.5,.2,.7,.3,0,0,0,0,.1,0,.1,0,.2,.1,.3,.2,.3,.1,.5,.3,.8,.5,.1,0,.2,.2,.4,.2,.2,.1,.4,.3,.6,.4h0s0,0,.1,0c.1,0,.2,.2,.3,.3,.1,0,.2,.2,.3,.3,.1,0,.2,.2,.3,.3,.1,0,.2,.2,.3,.3,.2,.2,.4,.4,.6,.6,.2,.2,.4,.4,.6,.7,.3,.3,.5,.7,.8,1.1h0c.3,.5,.5,.9,.7,1.3h0c0,.1,.9,1.7,.9,1.7l3.4,6.1h0s0,0,0,0l.2,.4,9,15.1-7.5,14.5h3.5l5.7-11.6,1.6-3.3,.3-.6,8.2-16.2c-.7-1.2-1.3-2.2-1.7-3l-8.5,16.9Z"/></svg>